<?xml version="1.0" encoding="utf-8" standalone="no"?>
<!DOCTYPE svg PUBLIC "-//W3C//DTD SVG 1.1//EN"
  "http://www.w3.org/Graphics/SVG/1.1/DTD/svg11.dtd">
<svg xmlns:xlink="http://www.w3.org/1999/xlink" width="733.144621pt" height="718.25989pt" viewBox="0 0 733.144621 718.25989" xmlns="http://www.w3.org/2000/svg" version="1.1">
 <metadata>
  <rdf:RDF xmlns:dc="http://purl.org/dc/elements/1.1/" xmlns:cc="http://creativecommons.org/ns#" xmlns:rdf="http://www.w3.org/1999/02/22-rdf-syntax-ns#">
   <cc:Work>
    <dc:type rdf:resource="http://purl.org/dc/dcmitype/StillImage"/>
    <dc:date>2024-04-22T13:08:12.300019</dc:date>
    <dc:format>image/svg+xml</dc:format>
    <dc:creator>
     <cc:Agent>
      <dc:title>Matplotlib v3.7.2, https://matplotlib.org/</dc:title>
     </cc:Agent>
    </dc:creator>
   </cc:Work>
  </rdf:RDF>
 </metadata>
 <defs>
  <style type="text/css">*{stroke-linejoin: round; stroke-linecap: butt}</style>
 </defs>
 <g id="figure_1">
  <g id="patch_1">
   <path d="M 0 718.25989 
L 733.144621 718.25989 
L 733.144621 0 
L 0 0 
z
" style="fill: #ffffff"/>
  </g>
  <g id="axes_1">
   <g id="patch_2">
    <path d="M 342.776019 286.606131 
C 340.687705 287.579929 338.642881 288.644396 336.647386 289.796496 
C 334.65189 290.948596 332.707622 292.187231 330.820132 293.508866 
L 245.416895 171.540404 
C 250.852867 167.734095 256.452358 164.166826 262.199386 160.848778 
C 267.946413 157.53073 273.835505 154.465063 279.849851 151.660527 
z
" clip-path="url(#p0371874e74)" style="fill: #01befe; stroke: #ffffff; stroke-width: 2; stroke-linejoin: miter"/>
   </g>
   <g id="patch_3">
    <path d="M 330.820132 293.508866 
C 328.932642 294.830501 327.103727 296.233877 325.338607 297.714988 
C 323.573487 299.1961 321.873844 300.753536 320.244528 302.382851 
L 198.718329 180.856651 
C 203.883259 175.691721 209.271128 170.754649 214.866557 166.059526 
C 220.461986 161.364403 226.259647 156.915702 232.242991 152.726119 
z
" clip-path="url(#p0371874e74)" style="fill: #ffdd00; stroke: #ffffff; stroke-width: 2; stroke-linejoin: miter"/>
   </g>
   <g id="patch_4">
    <path d="M 320.244528 302.382851 
C 318.615213 304.012167 317.057777 305.71181 315.576666 307.47693 
C 314.095554 309.242049 312.692179 311.070964 311.370544 312.958454 
L 171.560949 215.062723 
C 175.730707 209.107691 180.158358 203.337464 184.831264 197.768511 
C 189.50417 192.199559 194.417881 186.837185 199.558372 181.696694 
z
" clip-path="url(#p0371874e74)" style="fill: #ff7d00; stroke: #ffffff; stroke-width: 2; stroke-linejoin: miter"/>
   </g>
   <g id="patch_5">
    <path d="M 311.370544 312.958454 
C 310.048909 314.845945 308.810274 316.790212 307.658174 318.785708 
C 306.506074 320.781204 305.441606 322.826027 304.467809 324.914342 
L 165.933226 260.314605 
C 168.786451 254.195844 171.905341 248.204511 175.280994 242.357708 
C 178.656648 236.510906 182.285849 230.814201 186.158239 225.283855 
z
" clip-path="url(#p0371874e74)" style="fill: #ff006d; stroke: #ffffff; stroke-width: 2; stroke-linejoin: miter"/>
   </g>
   <g id="patch_6">
    <path d="M 304.467809 324.914342 
C 303.494012 327.002656 302.611813 329.132473 301.82373 331.297713 
C 301.035647 333.462953 300.342431 335.661554 299.74606 337.88724 
L 124.558025 290.945747 
C 126.520085 283.623239 128.800766 276.389842 131.393559 269.266204 
C 133.986351 262.142565 136.888786 255.135468 140.092578 248.264913 
z
" clip-path="url(#p0371874e74)" style="fill: #adff02; stroke: #ffffff; stroke-width: 2; stroke-linejoin: miter"/>
   </g>
   <g id="patch_7">
    <path d="M 299.74606 337.88724 
C 299.149689 340.112926 298.650732 342.363578 298.250612 344.632773 
C 297.850491 346.901967 297.54959 349.187542 297.348765 351.482973 
L 132.056156 337.021744 
C 132.677708 329.917382 133.608998 322.843528 134.84737 315.820372 
C 136.085742 308.797217 137.630016 301.831448 139.475783 294.942949 
z
" clip-path="url(#p0371874e74)" style="fill: #8f00ff; stroke: #ffffff; stroke-width: 2; stroke-linejoin: miter"/>
   </g>
   <g id="patch_8">
    <path d="M 304.467809 391.857075 
C 305.441606 393.945389 306.506074 395.990212 307.658174 397.985708 
C 308.810274 399.981204 310.048909 401.925472 311.370544 403.812962 
L 178.048634 497.165968 
C 174.011039 491.399686 170.227009 485.459948 166.707343 479.363708 
C 163.187677 473.267469 159.935729 467.020533 156.960779 460.640732 
z
" clip-path="url(#p0371874e74)" style="fill: #01befe; stroke: #ffffff; stroke-width: 2; stroke-linejoin: miter"/>
   </g>
   <g id="patch_9">
    <path d="M 311.370544 403.812962 
C 312.692179 405.700452 314.095554 407.529367 315.576666 409.294487 
C 317.057777 411.059607 318.615213 412.75925 320.244528 414.388565 
L 191.157943 543.475151 
C 185.773055 538.090263 180.625729 532.472942 175.730656 526.639222 
C 170.835584 520.805501 166.197426 514.760937 161.829423 508.522782 
z
" clip-path="url(#p0371874e74)" style="fill: #ffdd00; stroke: #ffffff; stroke-width: 2; stroke-linejoin: miter"/>
   </g>
   <g id="patch_10">
    <path d="M 320.244528 414.388565 
C 321.873844 416.017881 323.573487 417.575317 325.338607 419.056428 
C 327.103727 420.537539 328.932642 421.940915 330.820132 423.26255 
L 235.422899 559.503918 
C 229.571679 555.40685 223.902043 551.056385 218.430172 546.46494 
C 212.958301 541.873495 207.689407 537.045443 202.638529 531.994565 
z
" clip-path="url(#p0371874e74)" style="fill: #ff7d00; stroke: #ffffff; stroke-width: 2; stroke-linejoin: miter"/>
   </g>
   <g id="patch_11">
    <path d="M 330.820132 423.26255 
C 332.707622 424.584185 334.65189 425.82282 336.647386 426.97492 
C 338.642881 428.12702 340.687705 429.191488 342.776019 430.165285 
L 275.163859 575.16003 
C 268.85715 572.219163 262.681783 569.004471 256.655386 565.525128 
C 250.628988 562.045786 244.7573 558.305108 239.057079 554.313771 
z
" clip-path="url(#p0371874e74)" style="fill: #ff006d; stroke: #ffffff; stroke-width: 2; stroke-linejoin: miter"/>
   </g>
   <g id="patch_12">
    <path d="M 342.776019 430.165285 
C 344.864334 431.139082 346.99415 432.021281 349.15939 432.809364 
C 351.32463 433.597447 353.523231 434.290663 355.748917 434.887034 
L 313.317088 593.244777 
C 306.484231 591.413919 299.734526 589.285745 293.08724 586.866331 
C 286.439954 584.446917 279.901416 581.738566 273.490291 578.749009 
z
" clip-path="url(#p0371874e74)" style="fill: #adff02; stroke: #ffffff; stroke-width: 2; stroke-linejoin: miter"/>
   </g>
   <g id="patch_13">
    <path d="M 355.748917 434.887034 
C 357.974604 435.483405 360.225256 435.982362 362.49445 436.382482 
C 364.763644 436.782602 367.049219 437.083504 369.344651 437.284328 
L 354.745367 604.15491 
C 347.595096 603.529342 340.475531 602.592034 333.406991 601.345659 
C 326.338451 600.099285 319.32767 598.545032 312.394657 596.687337 
z
" clip-path="url(#p0371874e74)" style="fill: #8f00ff; stroke: #ffffff; stroke-width: 2; stroke-linejoin: miter"/>
   </g>
   <g id="patch_14">
    <path d="M 409.718752 430.165285 
C 411.807066 429.191488 413.85189 428.12702 415.847386 426.97492 
C 417.842881 425.82282 419.787149 424.584185 421.674639 423.26255 
L 524.567369 570.208597 
C 518.404714 574.523735 512.056679 578.567879 505.541386 582.329485 
C 499.026092 586.091092 492.349743 589.566579 485.531397 592.746026 
z
" clip-path="url(#p0371874e74)" style="fill: #01befe; stroke: #ffffff; stroke-width: 2; stroke-linejoin: miter"/>
   </g>
   <g id="patch_15">
    <path d="M 421.674639 423.26255 
C 423.56213 421.940915 425.391045 420.537539 427.156164 419.056428 
C 428.921284 417.575317 430.620927 416.017881 432.250243 414.388565 
L 550.416271 532.554594 
C 545.3491 537.621765 540.063209 542.465391 534.573687 547.071647 
C 529.084165 551.677903 523.396239 556.042402 517.526145 560.152687 
z
" clip-path="url(#p0371874e74)" style="fill: #ffdd00; stroke: #ffffff; stroke-width: 2; stroke-linejoin: miter"/>
   </g>
   <g id="patch_16">
    <path d="M 432.250243 414.388565 
C 433.879558 412.75925 435.436994 411.059607 436.918105 409.294487 
C 438.399217 407.529367 439.802593 405.700452 441.124227 403.812962 
L 572.824217 496.030287 
C 568.819663 501.749382 564.567434 507.290995 560.079667 512.639308 
C 555.5919 517.98762 550.872868 523.137539 545.936042 528.074365 
z
" clip-path="url(#p0371874e74)" style="fill: #ff7d00; stroke: #ffffff; stroke-width: 2; stroke-linejoin: miter"/>
   </g>
   <g id="patch_17">
    <path d="M 441.124227 403.812962 
C 442.445862 401.925472 443.684498 399.981204 444.836598 397.985708 
C 445.988698 395.990212 447.053165 393.945389 448.026962 391.857075 
L 599.122971 462.314301 
C 596.099332 468.798517 592.794159 475.147694 589.216889 481.343708 
C 585.639618 487.539723 581.793656 493.576674 577.68998 499.437331 
z
" clip-path="url(#p0371874e74)" style="fill: #ff006d; stroke: #ffffff; stroke-width: 2; stroke-linejoin: miter"/>
   </g>
   <g id="patch_18">
    <path d="M 448.026962 391.857075 
C 449.000759 389.76876 449.882958 387.638943 450.671041 385.473704 
C 451.459124 383.308464 452.15234 381.109863 452.748711 378.884177 
L 608.046402 420.496067 
C 606.239398 427.239897 604.138953 433.901658 601.751062 440.462334 
C 599.363171 447.023011 596.690108 453.476355 593.739503 459.803948 
z
" clip-path="url(#p0371874e74)" style="fill: #adff02; stroke: #ffffff; stroke-width: 2; stroke-linejoin: miter"/>
   </g>
   <g id="patch_19">
    <path d="M 452.748711 378.884177 
C 453.345082 376.65849 453.844039 374.407838 454.24416 372.138644 
C 454.64428 369.86945 454.945181 367.583875 455.146006 365.288443 
L 611.759767 378.990372 
C 611.160306 385.842236 610.262115 392.664677 609.067756 399.438221 
C 607.873397 406.211766 606.384009 412.929963 604.603842 419.573636 
z
" clip-path="url(#p0371874e74)" style="fill: #8f00ff; stroke: #ffffff; stroke-width: 2; stroke-linejoin: miter"/>
   </g>
   <g id="patch_20">
    <path d="M 448.026962 324.914342 
C 447.053165 322.826027 445.988698 320.781204 444.836598 318.785708 
C 443.684498 316.790212 442.445862 314.845945 441.124227 312.958454 
L 574.121753 219.832584 
C 578.15274 225.589429 581.930577 231.519446 585.444482 237.605708 
C 588.958387 243.69197 592.205014 249.928682 595.175095 256.298041 
z
" clip-path="url(#p0371874e74)" style="fill: #01befe; stroke: #ffffff; stroke-width: 2; stroke-linejoin: miter"/>
   </g>
   <g id="patch_21">
    <path d="M 441.124227 312.958454 
C 439.802593 311.070964 438.399217 309.242049 436.918105 307.47693 
C 435.436994 305.71181 433.879558 304.012167 432.250243 302.382851 
L 541.735828 192.897266 
C 546.550455 197.711893 551.152679 202.734339 555.529363 207.950267 
C 559.906047 213.166196 564.053022 218.57064 567.958453 224.148173 
z
" clip-path="url(#p0371874e74)" style="fill: #ffdd00; stroke: #ffffff; stroke-width: 2; stroke-linejoin: miter"/>
   </g>
   <g id="patch_22">
    <path d="M 432.250243 302.382851 
C 430.620927 300.753536 428.921284 299.1961 427.156164 297.714988 
C 425.391045 296.233877 423.56213 294.830501 421.674639 293.508866 
L 522.977415 148.833509 
C 529.074009 153.102389 534.981404 157.635294 540.682741 162.419283 
C 546.384077 167.203272 551.873925 172.233791 557.136614 177.49648 
z
" clip-path="url(#p0371874e74)" style="fill: #ff7d00; stroke: #ffffff; stroke-width: 2; stroke-linejoin: miter"/>
   </g>
   <g id="patch_23">
    <path d="M 421.674639 293.508866 
C 419.787149 292.187231 417.842881 290.948596 415.847386 289.796496 
C 413.85189 288.644396 411.807066 287.579929 409.718752 286.606131 
L 478.669767 138.740203 
C 485.060009 141.720022 491.317168 144.977293 497.423386 148.50272 
C 503.529603 152.028146 509.479062 155.818369 515.254782 159.862572 
z
" clip-path="url(#p0371874e74)" style="fill: #ff006d; stroke: #ffffff; stroke-width: 2; stroke-linejoin: miter"/>
   </g>
   <g id="patch_24">
    <path d="M 409.718752 286.606131 
C 407.630437 285.632334 405.500621 284.750136 403.335381 283.962053 
C 401.170141 283.17397 398.97154 282.480754 396.745854 281.884383 
L 438.767714 125.056666 
C 445.556057 126.875597 452.26179 128.989906 458.865771 131.393559 
C 465.469753 133.797211 471.965694 136.487918 478.335053 139.457999 
z
" clip-path="url(#p0371874e74)" style="fill: #adff02; stroke: #ffffff; stroke-width: 2; stroke-linejoin: miter"/>
   </g>
   <g id="patch_25">
    <path d="M 396.745854 281.884383 
C 394.520168 281.288012 392.269515 280.789054 390.000321 280.388934 
C 387.731127 279.988814 385.445552 279.687912 383.15012 279.487088 
L 396.57594 126.029272 
C 403.335987 126.6207 410.067005 127.506855 416.749781 128.685209 
C 423.432558 129.863563 430.060729 131.332993 436.615375 133.089305 
z
" clip-path="url(#p0371874e74)" style="fill: #8f00ff; stroke: #ffffff; stroke-width: 2; stroke-linejoin: miter"/>
   </g>
   <g id="matplotlib.axis_1"/>
   <g id="matplotlib.axis_2"/>
   <g id="line2d_1">
    <path d="M 338.627386 293.225957 
L 337.472951 293.906247 
L 336.330815 294.606989 
L 335.20134 295.327959 
L 334.084882 296.068929 
L 332.981798 296.829665 
L 331.892436 297.609923 
L 330.817142 298.409458 
L 329.756257 299.228016 
L 328.710117 300.065337 
L 327.679055 300.921155 
L 326.663398 301.795199 
L 325.663467 302.687192 
L 324.679579 303.59685 
L 323.712047 304.523886 
L 322.761178 305.468006 
L 321.827273 306.428909 
L 320.910629 307.406291 
L 320.011535 308.399843 
L 319.130278 309.409248 
L 318.267137 310.434188 
L 317.422385 311.474336 
L 316.59629 312.529362 
L 315.789116 313.598933 
L 315.001116 314.68271 
L 314.232542 315.780347 
L 313.483638 316.891497 
L 312.75464 318.015808 
L 312.04578 319.152924 
L 311.357282 320.302482 
L 310.689366 321.46412 
L 310.042243 322.637467 
L 309.416118 323.822154 
L 308.81119 325.017802 
L 308.227651 326.224034 
L 307.665685 327.440467 
L 307.125472 328.666714 
L 306.607181 329.902387 
L 306.110979 331.147095 
L 305.637021 332.400442 
L 305.18546 333.66203 
L 304.756436 334.93146 
L 304.350088 336.208329 
L 303.966543 337.492232 
L 303.605923 338.782762 
L 303.268343 340.079509 
L 302.95391 341.382062 
L 302.662723 342.690008 
L 302.394875 344.002933 
L 302.15045 345.320419 
" clip-path="url(#p0371874e74)" style="fill: none; stroke: #333333; stroke-width: 1.5; stroke-linecap: square"/>
   </g>
   <g id="line2d_2">
    <path d="M 376.247386 239.585708 
L 375.401086 239.588723 
L 374.55483 239.597766 
L 373.708659 239.612837 
L 372.862617 239.633936 
L 372.016747 239.661062 
L 371.171092 239.694212 
L 370.325694 239.733386 
L 369.480597 239.778581 
L 368.635843 239.829796 
L 367.791476 239.887026 
L 366.947538 239.950271 
L 366.104071 240.019526 
L 365.26112 240.094787 
L 364.418725 240.176052 
L 363.576932 240.263316 
L 362.735781 240.356574 
L 361.895316 240.455822 
L 361.055579 240.561055 
L 360.216613 240.672267 
L 359.378461 240.789452 
L 358.541164 240.912606 
L 357.704767 241.041721 
L 356.86931 241.176791 
L 356.034837 241.31781 
L 355.201389 241.464769 
L 354.36901 241.617662 
L 353.53774 241.77648 
L 352.707624 241.941217 
L 351.878702 242.111862 
L 351.051016 242.288409 
L 350.224609 242.470847 
L 349.399523 242.659167 
L 348.5758 242.853361 
L 347.75348 243.053417 
L 346.932607 243.259327 
L 346.113221 243.471079 
L 345.295365 243.688662 
L 344.479079 243.912066 
L 343.664405 244.14128 
L 342.851385 244.376291 
L 342.04006 244.617088 
L 341.230471 244.863659 
L 340.422659 245.115991 
L 339.616664 245.37407 
L 338.812529 245.637885 
L 338.010294 245.907422 
L 337.209999 246.182667 
L 336.411685 246.463606 
L 335.615393 246.750225 
" clip-path="url(#p0371874e74)" style="fill: none; stroke: #bebebe; stroke-width: 0.8; stroke-linecap: square"/>
   </g>
   <g id="line2d_3">
    <path d="M 376.247386 199.985708 
L 375.118986 199.989727 
L 373.990644 200.001785 
L 372.862417 200.02188 
L 371.734361 200.050012 
L 370.606535 200.086179 
L 369.478994 200.13038 
L 368.351797 200.182612 
L 367.225001 200.242872 
L 366.098663 200.311158 
L 364.972839 200.387466 
L 363.847588 200.471792 
L 362.722966 200.564131 
L 361.599031 200.66448 
L 360.475839 200.772833 
L 359.353447 200.889185 
L 358.231912 201.013529 
L 357.111292 201.14586 
L 355.991643 201.28617 
L 354.873022 201.434453 
L 353.755486 201.590701 
L 352.639091 201.754905 
L 351.523894 201.927059 
L 350.409951 202.107152 
L 349.29732 202.295177 
L 348.186057 202.491123 
L 347.076218 202.69498 
L 345.967859 202.906738 
L 344.861036 203.126386 
L 343.755807 203.353914 
L 342.652226 203.589309 
L 341.550351 203.83256 
L 340.450236 204.083654 
L 339.351938 204.342578 
L 338.255512 204.60932 
L 337.161014 204.883866 
L 336.068499 205.166202 
L 334.978024 205.456313 
L 333.889643 205.754186 
L 332.803412 206.059804 
L 331.719385 206.373152 
L 330.637618 206.694215 
L 329.558166 207.022976 
L 328.481083 207.359418 
L 327.406424 207.703525 
L 326.334244 208.055278 
L 325.264597 208.41466 
L 324.197537 208.781653 
L 323.133118 209.156239 
L 322.071395 209.538397 
" clip-path="url(#p0371874e74)" style="fill: none; stroke: #bebebe; stroke-width: 0.8; stroke-linecap: square"/>
   </g>
   <g id="line2d_4">
    <path d="M 376.247386 160.385708 
L 374.836887 160.390732 
L 373.426459 160.405804 
L 372.016175 160.430923 
L 370.606105 160.466088 
L 369.196322 160.511297 
L 367.786896 160.566548 
L 366.3779 160.631838 
L 364.969405 160.707163 
L 363.561482 160.79252 
L 362.154203 160.887905 
L 360.747639 160.993313 
L 359.341862 161.108737 
L 357.936942 161.234173 
L 356.532952 161.369615 
L 355.129962 161.515054 
L 353.728044 161.670484 
L 352.327269 161.835898 
L 350.927708 162.011285 
L 349.529431 162.196639 
L 348.132511 162.391949 
L 346.737017 162.597205 
L 345.343021 162.812397 
L 343.950593 163.037514 
L 342.559804 163.272544 
L 341.170725 163.517476 
L 339.783426 163.772298 
L 338.397977 164.036995 
L 337.014449 164.311556 
L 335.632912 164.595965 
L 334.253437 164.890209 
L 332.876092 165.194272 
L 331.500948 165.50814 
L 330.128076 165.831796 
L 328.757543 166.165223 
L 327.389421 166.508406 
L 326.023778 166.861325 
L 324.660684 167.223965 
L 323.300208 167.596305 
L 321.942418 167.978328 
L 320.587385 168.370013 
L 319.235176 168.771342 
L 317.885861 169.182293 
L 316.539507 169.602845 
L 315.196184 170.032979 
L 313.855958 170.47267 
L 312.518899 170.921898 
L 311.185074 171.38064 
L 309.854551 171.848871 
L 308.527397 172.326569 
" clip-path="url(#p0371874e74)" style="fill: none; stroke: #bebebe; stroke-width: 0.8; stroke-linecap: square"/>
   </g>
   <g id="line2d_5">
    <path d="M 376.247386 120.785708 
L 374.554787 120.791737 
L 372.862274 120.809823 
L 371.169933 120.839966 
L 369.477849 120.882164 
L 367.786109 120.936415 
L 366.094798 121.002716 
L 364.404003 121.081064 
L 362.713809 121.171454 
L 361.024301 121.273883 
L 359.335566 121.388345 
L 357.64769 121.514833 
L 355.960757 121.653343 
L 354.274853 121.803867 
L 352.590065 121.966396 
L 350.906478 122.140923 
L 349.224176 122.32744 
L 347.543246 122.525936 
L 345.863772 122.736401 
L 344.18584 122.958825 
L 342.509536 123.193197 
L 340.834943 123.439504 
L 339.162148 123.697734 
L 337.491234 123.967875 
L 335.822288 124.249911 
L 334.155393 124.54383 
L 332.490634 124.849615 
L 330.828095 125.167253 
L 329.167862 125.496725 
L 327.510018 125.838016 
L 325.854647 126.191109 
L 324.201833 126.555985 
L 322.551661 126.932626 
L 320.904213 127.321013 
L 319.259575 127.721126 
L 317.617828 128.132945 
L 315.979056 128.556449 
L 314.343343 128.991616 
L 312.710772 129.438424 
L 311.081425 129.896852 
L 309.455385 130.366874 
L 307.832735 130.848468 
L 306.213556 131.34161 
L 304.597932 131.846273 
L 302.985943 132.362433 
L 301.377673 132.890063 
L 299.773202 133.429136 
L 298.172612 133.979626 
L 296.575984 134.541504 
L 294.9834 135.114742 
" clip-path="url(#p0371874e74)" style="fill: none; stroke: #bebebe; stroke-width: 0.8; stroke-linecap: square"/>
   </g>
   <g id="line2d_6">
    <path d="M 311.087634 396.005708 
L 311.767925 397.160142 
L 312.468666 398.302278 
L 313.189637 399.431754 
L 313.930607 400.548211 
L 314.691342 401.651296 
L 315.471601 402.740658 
L 316.271136 403.815952 
L 317.089693 404.876837 
L 317.927014 405.922976 
L 318.782832 406.954038 
L 319.656876 407.969696 
L 320.548869 408.969627 
L 321.458528 409.953515 
L 322.385564 410.921046 
L 323.329683 411.871916 
L 324.290586 412.805821 
L 325.267969 413.722465 
L 326.26152 414.621559 
L 327.270926 415.502816 
L 328.295865 416.365957 
L 329.336013 417.210709 
L 330.39104 418.036803 
L 331.460611 418.843978 
L 332.544387 419.631978 
L 333.642024 420.400551 
L 334.753175 421.149456 
L 335.877486 421.878454 
L 337.014601 422.587314 
L 338.164159 423.275811 
L 339.325797 423.943728 
L 340.499145 424.590851 
L 341.683831 425.216976 
L 342.879479 425.821904 
L 344.085711 426.405443 
L 345.302144 426.967409 
L 346.528391 427.507622 
L 347.764065 428.025912 
L 349.008772 428.522115 
L 350.262119 428.996072 
L 351.523707 429.447634 
L 352.793137 429.876658 
L 354.070006 430.283006 
L 355.353909 430.666551 
L 356.644439 431.027171 
L 357.941186 431.364751 
L 359.243739 431.679184 
L 360.551686 431.970371 
L 361.86461 432.238219 
L 363.182097 432.482644 
" clip-path="url(#p0371874e74)" style="fill: none; stroke: #333333; stroke-width: 1.5; stroke-linecap: square"/>
   </g>
   <g id="line2d_7">
    <path d="M 257.447386 358.385708 
L 257.4504 359.232008 
L 257.459443 360.078264 
L 257.474515 360.924435 
L 257.495614 361.770477 
L 257.522739 362.616346 
L 257.555889 363.462002 
L 257.595063 364.307399 
L 257.640259 365.152497 
L 257.691473 365.99725 
L 257.748704 366.841618 
L 257.811948 367.685556 
L 257.881203 368.529023 
L 257.956465 369.371974 
L 258.037729 370.214368 
L 258.124993 371.056162 
L 258.218251 371.897313 
L 258.317499 372.737778 
L 258.422732 373.577515 
L 258.533944 374.416481 
L 258.65113 375.254633 
L 258.774283 376.091929 
L 258.903399 376.928327 
L 259.038469 377.763784 
L 259.179487 378.598257 
L 259.326446 379.431705 
L 259.479339 380.264084 
L 259.638158 381.095353 
L 259.802894 381.92547 
L 259.97354 382.754392 
L 260.150086 383.582078 
L 260.332524 384.408484 
L 260.520845 385.233571 
L 260.715038 386.057294 
L 260.915095 386.879614 
L 261.121004 387.700487 
L 261.332756 388.519873 
L 261.550339 389.337729 
L 261.773744 390.154015 
L 262.002957 390.968689 
L 262.237969 391.781708 
L 262.478766 392.593034 
L 262.725336 393.402623 
L 262.977668 394.210435 
L 263.235748 395.016429 
L 263.499563 395.820565 
L 263.7691 396.6228 
L 264.044344 397.423095 
L 264.325283 398.221409 
L 264.611902 399.017701 
" clip-path="url(#p0371874e74)" style="fill: none; stroke: #bebebe; stroke-width: 0.8; stroke-linecap: square"/>
   </g>
   <g id="line2d_8">
    <path d="M 217.847386 358.385708 
L 217.851405 359.514107 
L 217.863462 360.642449 
L 217.883558 361.770677 
L 217.91169 362.898733 
L 217.947857 364.026559 
L 217.992057 365.1541 
L 218.044289 366.281297 
L 218.10455 367.408093 
L 218.172835 368.534431 
L 218.249143 369.660254 
L 218.333469 370.785506 
L 218.425809 371.910127 
L 218.526158 373.034063 
L 218.634511 374.157255 
L 218.750862 375.279647 
L 218.875207 376.401181 
L 219.007537 377.521802 
L 219.147847 378.641451 
L 219.29613 379.760072 
L 219.452378 380.877608 
L 219.616583 381.994003 
L 219.788736 383.1092 
L 219.96883 384.223142 
L 220.156854 385.335773 
L 220.3528 386.447037 
L 220.556657 387.556876 
L 220.768415 388.665235 
L 220.988063 389.772057 
L 221.215591 390.877287 
L 221.450986 391.980867 
L 221.694237 393.082743 
L 221.945331 394.182858 
L 222.204256 395.281156 
L 222.470998 396.377582 
L 222.745543 397.47208 
L 223.027879 398.564594 
L 223.317991 399.65507 
L 223.615863 400.743451 
L 223.921481 401.829682 
L 224.23483 402.913709 
L 224.555892 403.995476 
L 224.884653 405.074928 
L 225.221095 406.152011 
L 225.565202 407.22667 
L 225.916955 408.29885 
L 226.276338 409.368497 
L 226.643331 410.435557 
L 227.017916 411.499976 
L 227.400074 412.561699 
" clip-path="url(#p0371874e74)" style="fill: none; stroke: #bebebe; stroke-width: 0.8; stroke-linecap: square"/>
   </g>
   <g id="line2d_9">
    <path d="M 178.247386 358.385708 
L 178.25241 359.796207 
L 178.267482 361.206635 
L 178.292601 362.616919 
L 178.327766 364.026989 
L 178.372975 365.436772 
L 178.428225 366.846197 
L 178.493515 368.255194 
L 178.568841 369.663689 
L 178.654198 371.071612 
L 178.749583 372.478891 
L 178.85499 373.885455 
L 178.970415 375.291232 
L 179.095851 376.696152 
L 179.231292 378.100142 
L 179.376732 379.503132 
L 179.532162 380.90505 
L 179.697575 382.305825 
L 179.872963 383.705386 
L 180.058316 385.103663 
L 180.253626 386.500583 
L 180.458882 387.896077 
L 180.674074 389.290073 
L 180.899191 390.682501 
L 181.134221 392.07329 
L 181.379153 393.462369 
L 181.633975 394.849668 
L 181.898672 396.235117 
L 182.173233 397.618645 
L 182.457642 399.000181 
L 182.751886 400.379657 
L 183.05595 401.757002 
L 183.369817 403.132145 
L 183.693473 404.505018 
L 184.026901 405.875551 
L 184.370083 407.243673 
L 184.723003 408.609316 
L 185.085642 409.97241 
L 185.457982 411.332886 
L 185.840005 412.690675 
L 186.231691 414.045709 
L 186.633019 415.397917 
L 187.04397 416.747233 
L 187.464523 418.093586 
L 187.894656 419.43691 
L 188.334348 420.777135 
L 188.783576 422.114195 
L 189.242317 423.44802 
L 189.710549 424.778543 
L 190.188247 426.105697 
" clip-path="url(#p0371874e74)" style="fill: none; stroke: #bebebe; stroke-width: 0.8; stroke-linecap: square"/>
   </g>
   <g id="line2d_10">
    <path d="M 138.647386 358.385708 
L 138.653414 360.078307 
L 138.671501 361.77082 
L 138.701644 363.463161 
L 138.743842 365.155245 
L 138.798092 366.846985 
L 138.864393 368.538295 
L 138.942741 370.229091 
L 139.033132 371.919285 
L 139.13556 373.608792 
L 139.250022 375.297527 
L 139.376511 376.985404 
L 139.51502 378.672337 
L 139.665544 380.35824 
L 139.828073 382.043029 
L 140.002601 383.726616 
L 140.189117 385.408918 
L 140.387613 387.089848 
L 140.598078 388.769322 
L 140.820502 390.447254 
L 141.054874 392.123558 
L 141.301181 393.798151 
L 141.559412 395.470946 
L 141.829552 397.141859 
L 142.111588 398.810806 
L 142.405507 400.477701 
L 142.711293 402.14246 
L 143.02893 403.804998 
L 143.358402 405.465232 
L 143.699694 407.123076 
L 144.052786 408.778447 
L 144.417663 410.431261 
L 144.794304 412.081433 
L 145.182691 413.72888 
L 145.582804 415.373519 
L 145.994622 417.015266 
L 146.418126 418.654037 
L 146.853293 420.28975 
L 147.300102 421.922322 
L 147.758529 423.551669 
L 148.228552 425.177709 
L 148.710146 426.800359 
L 149.203287 428.419538 
L 149.70795 430.035162 
L 150.22411 431.64715 
L 150.75174 433.255421 
L 151.290814 434.859892 
L 151.841303 436.460482 
L 152.403181 438.05711 
L 152.976419 439.649694 
" clip-path="url(#p0371874e74)" style="fill: none; stroke: #bebebe; stroke-width: 0.8; stroke-linecap: square"/>
   </g>
   <g id="line2d_11">
    <path d="M 413.867386 423.54546 
L 415.02182 422.865169 
L 416.163956 422.164427 
L 417.293432 421.443457 
L 418.409889 420.702487 
L 419.512973 419.941752 
L 420.602335 419.161493 
L 421.677629 418.361958 
L 422.738514 417.5434 
L 423.784654 416.70608 
L 424.815716 415.850262 
L 425.831373 414.976218 
L 426.831305 414.084225 
L 427.815192 413.174566 
L 428.782724 412.24753 
L 429.733593 411.303411 
L 430.667498 410.342507 
L 431.584142 409.365125 
L 432.483236 408.371574 
L 433.364493 407.362168 
L 434.227634 406.337229 
L 435.072386 405.297081 
L 435.898481 404.242054 
L 436.705656 403.172483 
L 437.493655 402.088707 
L 438.262229 400.99107 
L 439.011133 399.879919 
L 439.740131 398.755608 
L 440.448992 397.618493 
L 441.137489 396.468934 
L 441.805405 395.307297 
L 442.452528 394.133949 
L 443.078653 392.949263 
L 443.683581 391.753614 
L 444.26712 390.547382 
L 444.829086 389.33095 
L 445.369299 388.104702 
L 445.88759 386.869029 
L 446.383792 385.624322 
L 446.85775 384.370975 
L 447.309312 383.109387 
L 447.738335 381.839957 
L 448.144683 380.563088 
L 448.528228 379.279185 
L 448.888848 377.988655 
L 449.226428 376.691908 
L 449.540862 375.389354 
L 449.832048 374.081408 
L 450.099897 372.768483 
L 450.344321 371.450997 
" clip-path="url(#p0371874e74)" style="fill: none; stroke: #333333; stroke-width: 1.5; stroke-linecap: square"/>
   </g>
   <g id="line2d_12">
    <path d="M 376.247386 477.185708 
L 377.093685 477.182694 
L 377.939941 477.173651 
L 378.786112 477.158579 
L 379.632154 477.13748 
L 380.478024 477.110355 
L 381.323679 477.077204 
L 382.169077 477.03803 
L 383.014174 476.992835 
L 383.858928 476.941621 
L 384.703295 476.88439 
L 385.547234 476.821146 
L 386.3907 476.751891 
L 387.233652 476.676629 
L 388.076046 476.595364 
L 388.91784 476.508101 
L 389.75899 476.414842 
L 390.599456 476.315595 
L 391.439192 476.210362 
L 392.278158 476.09915 
L 393.116311 475.981964 
L 393.953607 475.85881 
L 394.790004 475.729695 
L 395.625461 475.594625 
L 396.459934 475.453607 
L 397.293382 475.306647 
L 398.125761 475.153755 
L 398.957031 474.994936 
L 399.787147 474.8302 
L 400.61607 474.659554 
L 401.443755 474.483008 
L 402.270162 474.30057 
L 403.095248 474.112249 
L 403.918972 473.918056 
L 404.741291 473.717999 
L 405.562164 473.51209 
L 406.38155 473.300338 
L 407.199407 473.082754 
L 408.015692 472.85935 
L 408.830366 472.630137 
L 409.643386 472.395125 
L 410.454711 472.154328 
L 411.2643 471.907758 
L 412.072112 471.655426 
L 412.878107 471.397346 
L 413.682242 471.133531 
L 414.484477 470.863994 
L 415.284772 470.588749 
L 416.083086 470.30781 
L 416.879379 470.021192 
" clip-path="url(#p0371874e74)" style="fill: none; stroke: #bebebe; stroke-width: 0.8; stroke-linecap: square"/>
   </g>
   <g id="line2d_13">
    <path d="M 376.247386 516.785708 
L 377.375785 516.781689 
L 378.504127 516.769631 
L 379.632354 516.749536 
L 380.76041 516.721404 
L 381.888237 516.685237 
L 383.015777 516.641036 
L 384.142974 516.588805 
L 385.26977 516.528544 
L 386.396108 516.460258 
L 387.521932 516.383951 
L 388.647183 516.299625 
L 389.771805 516.207285 
L 390.89574 516.106936 
L 392.018932 515.998583 
L 393.141324 515.882231 
L 394.262859 515.757887 
L 395.383479 515.625557 
L 396.503128 515.485246 
L 397.621749 515.336964 
L 398.739286 515.180716 
L 399.855681 515.016511 
L 400.970877 514.844358 
L 402.08482 514.664264 
L 403.197451 514.47624 
L 404.308714 514.280294 
L 405.418553 514.076437 
L 406.526912 513.864679 
L 407.633735 513.64503 
L 408.738964 513.417503 
L 409.842545 513.182108 
L 410.94442 512.938857 
L 412.044535 512.687763 
L 413.142834 512.428838 
L 414.23926 512.162096 
L 415.333757 511.88755 
L 416.426272 511.605215 
L 417.516747 511.315103 
L 418.605128 511.017231 
L 419.691359 510.711613 
L 420.775386 510.398264 
L 421.857153 510.077201 
L 422.936605 509.748441 
L 424.013688 509.411998 
L 425.088347 509.067892 
L 426.160527 508.716139 
L 427.230175 508.356756 
L 428.297235 507.989763 
L 429.361653 507.615178 
L 430.423376 507.233019 
" clip-path="url(#p0371874e74)" style="fill: none; stroke: #bebebe; stroke-width: 0.8; stroke-linecap: square"/>
   </g>
   <g id="line2d_14">
    <path d="M 376.247386 556.385708 
L 377.657885 556.380684 
L 379.068312 556.365612 
L 380.478596 556.340493 
L 381.888666 556.305328 
L 383.298449 556.260119 
L 384.707875 556.204868 
L 386.116871 556.139579 
L 387.525366 556.064253 
L 388.933289 555.978896 
L 390.340568 555.883511 
L 391.747132 555.778104 
L 393.15291 555.662679 
L 394.557829 555.537243 
L 395.961819 555.401802 
L 397.364809 555.256362 
L 398.766727 555.100932 
L 400.167502 554.935519 
L 401.567064 554.760131 
L 402.96534 554.574778 
L 404.362261 554.379468 
L 405.757754 554.174212 
L 407.15175 553.95902 
L 408.544178 553.733903 
L 409.934967 553.498872 
L 411.324046 553.25394 
L 412.711345 552.999119 
L 414.096794 552.734421 
L 415.480322 552.459861 
L 416.861859 552.175451 
L 418.241335 551.881208 
L 419.618679 551.577144 
L 420.993823 551.263277 
L 422.366696 550.939621 
L 423.737228 550.606193 
L 425.10535 550.263011 
L 426.470993 549.910091 
L 427.834087 549.547452 
L 429.194563 549.175111 
L 430.552353 548.793089 
L 431.907386 548.401403 
L 433.259595 548.000075 
L 434.60891 547.589124 
L 435.955264 547.168571 
L 437.298587 546.738438 
L 438.638813 546.298746 
L 439.975872 545.849518 
L 441.309697 545.390777 
L 442.64022 544.922545 
L 443.967374 544.444847 
" clip-path="url(#p0371874e74)" style="fill: none; stroke: #bebebe; stroke-width: 0.8; stroke-linecap: square"/>
   </g>
   <g id="line2d_15">
    <path d="M 376.247386 595.985708 
L 377.939984 595.979679 
L 379.632497 595.961593 
L 381.324839 595.93145 
L 383.016922 595.889252 
L 384.708662 595.835001 
L 386.399973 595.7687 
L 388.090768 595.690353 
L 389.780962 595.599962 
L 391.47047 595.497534 
L 393.159205 595.383072 
L 394.847082 595.256583 
L 396.534014 595.118073 
L 398.219918 594.96755 
L 399.904706 594.80502 
L 401.588294 594.630493 
L 403.270595 594.443977 
L 404.951526 594.245481 
L 406.630999 594.035016 
L 408.308931 593.812591 
L 409.985236 593.57822 
L 411.659828 593.331913 
L 413.332623 593.073682 
L 415.003537 592.803542 
L 416.672483 592.521505 
L 418.339378 592.227587 
L 420.004137 591.921801 
L 421.666676 591.604164 
L 423.326909 591.274691 
L 424.984753 590.9334 
L 426.640124 590.580307 
L 428.292938 590.215431 
L 429.94311 589.83879 
L 431.590558 589.450403 
L 433.235196 589.05029 
L 434.876943 588.638471 
L 436.515715 588.214968 
L 438.151428 587.779801 
L 439.783999 587.332992 
L 441.413346 586.874565 
L 443.039386 586.404542 
L 444.662037 585.922948 
L 446.281215 585.429807 
L 447.896839 584.925144 
L 449.508828 584.408984 
L 451.117098 583.881354 
L 452.721569 583.34228 
L 454.322159 582.79179 
L 455.918787 582.229913 
L 457.511372 581.656675 
" clip-path="url(#p0371874e74)" style="fill: none; stroke: #bebebe; stroke-width: 0.8; stroke-linecap: square"/>
   </g>
   <g id="line2d_16">
    <path d="M 441.407137 320.765708 
L 440.726846 319.611274 
L 440.026105 318.469138 
L 439.305135 317.339662 
L 438.564164 316.223205 
L 437.803429 315.12012 
L 437.02317 314.030758 
L 436.223635 312.955464 
L 435.405078 311.894579 
L 434.567757 310.84844 
L 433.711939 309.817378 
L 432.837895 308.80172 
L 431.945902 307.801789 
L 431.036243 306.817902 
L 430.109207 305.85037 
L 429.165088 304.899501 
L 428.204185 303.965596 
L 427.226802 303.048951 
L 426.233251 302.149858 
L 425.223846 301.268601 
L 424.198906 300.405459 
L 423.158758 299.560707 
L 422.103731 298.734613 
L 421.03416 297.927438 
L 419.950384 297.139439 
L 418.852747 296.370865 
L 417.741597 295.62196 
L 416.617285 294.892962 
L 415.48017 294.184102 
L 414.330612 293.495605 
L 413.168974 292.827689 
L 411.995626 292.180566 
L 410.81094 291.554441 
L 409.615292 290.949513 
L 408.40906 290.365974 
L 407.192627 289.804008 
L 405.96638 289.263794 
L 404.730706 288.745504 
L 403.485999 288.249302 
L 402.232652 287.775344 
L 400.971064 287.323782 
L 399.701634 286.894759 
L 398.424765 286.48841 
L 397.140862 286.104865 
L 395.850332 285.744246 
L 394.553585 285.406666 
L 393.251032 285.092232 
L 391.943085 284.801045 
L 390.630161 284.533197 
L 389.312674 284.288773 
" clip-path="url(#p0371874e74)" style="fill: none; stroke: #333333; stroke-width: 1.5; stroke-linecap: square"/>
   </g>
   <g id="line2d_17">
    <path d="M 495.047386 358.385708 
L 495.044371 357.539409 
L 495.035328 356.693152 
L 495.020256 355.846982 
L 494.999158 355.00094 
L 494.972032 354.15507 
L 494.938882 353.309415 
L 494.899708 352.464017 
L 494.854513 351.61892 
L 494.803298 350.774166 
L 494.746067 349.929799 
L 494.682823 349.08586 
L 494.613568 348.242394 
L 494.538306 347.399442 
L 494.457042 346.557048 
L 494.369778 345.715254 
L 494.27652 344.874103 
L 494.177272 344.033638 
L 494.072039 343.193901 
L 493.960827 342.354936 
L 493.843641 341.516783 
L 493.720488 340.679487 
L 493.591373 339.843089 
L 493.456302 339.007633 
L 493.315284 338.173159 
L 493.168325 337.339712 
L 493.015432 336.507332 
L 492.856613 335.676063 
L 492.691877 334.845946 
L 492.521231 334.017024 
L 492.344685 333.189339 
L 492.162247 332.362932 
L 491.973927 331.537846 
L 491.779733 330.714122 
L 491.579677 329.891803 
L 491.373767 329.070929 
L 491.162015 328.251544 
L 490.944432 327.433687 
L 490.721027 326.617401 
L 490.491814 325.802728 
L 490.256803 324.989708 
L 490.016006 324.178383 
L 489.769435 323.368794 
L 489.517103 322.560981 
L 489.259023 321.754987 
L 488.995208 320.950852 
L 488.725672 320.148616 
L 488.450427 319.348321 
L 488.169488 318.550008 
L 487.882869 317.753715 
" clip-path="url(#p0371874e74)" style="fill: none; stroke: #bebebe; stroke-width: 0.8; stroke-linecap: square"/>
   </g>
   <g id="line2d_18">
    <path d="M 534.647386 358.385708 
L 534.643366 357.257309 
L 534.631309 356.128967 
L 534.611213 355.00074 
L 534.583082 353.872684 
L 534.546914 352.744857 
L 534.502714 351.617317 
L 534.450482 350.49012 
L 534.390222 349.363324 
L 534.321936 348.236985 
L 534.245628 347.111162 
L 534.161302 345.985911 
L 534.068962 344.861289 
L 533.968613 343.737353 
L 533.86026 342.614161 
L 533.743909 341.49177 
L 533.619565 340.370235 
L 533.487234 339.249615 
L 533.346924 338.129966 
L 533.198641 337.011345 
L 533.042393 335.893808 
L 532.878188 334.777413 
L 532.706035 333.662216 
L 532.525941 332.548274 
L 532.337917 331.435643 
L 532.141971 330.32438 
L 531.938114 329.21454 
L 531.726356 328.106181 
L 531.506708 326.999359 
L 531.27918 325.89413 
L 531.043785 324.790549 
L 530.800534 323.688673 
L 530.54944 322.588558 
L 530.290516 321.49026 
L 530.023774 320.393834 
L 529.749228 319.299336 
L 529.466892 318.206822 
L 529.17678 317.116347 
L 528.878908 316.027966 
L 528.57329 314.941735 
L 528.259942 313.857708 
L 527.938879 312.775941 
L 527.610118 311.696489 
L 527.273676 310.619406 
L 526.929569 309.544747 
L 526.577816 308.472566 
L 526.218434 307.402919 
L 525.85144 306.335859 
L 525.476855 305.271441 
L 525.094697 304.209718 
" clip-path="url(#p0371874e74)" style="fill: none; stroke: #bebebe; stroke-width: 0.8; stroke-linecap: square"/>
   </g>
   <g id="line2d_19">
    <path d="M 574.247386 358.385708 
L 574.242361 356.975209 
L 574.22729 355.564782 
L 574.20217 354.154497 
L 574.167006 352.744428 
L 574.121796 351.334644 
L 574.066546 349.925219 
L 574.001256 348.516223 
L 573.925931 347.107728 
L 573.840573 345.699805 
L 573.745189 344.292526 
L 573.639781 342.885962 
L 573.524356 341.480184 
L 573.39892 340.075265 
L 573.263479 338.671275 
L 573.11804 337.268285 
L 572.962609 335.866367 
L 572.797196 334.465592 
L 572.621808 333.06603 
L 572.436455 331.667754 
L 572.241145 330.270833 
L 572.035889 328.87534 
L 571.820697 327.481343 
L 571.59558 326.088916 
L 571.36055 324.698127 
L 571.115618 323.309048 
L 570.860796 321.921748 
L 570.596099 320.5363 
L 570.321538 319.152772 
L 570.037129 317.771235 
L 569.742885 316.391759 
L 569.438821 315.014415 
L 569.124954 313.639271 
L 568.801298 312.266398 
L 568.467871 310.895866 
L 568.124688 309.527743 
L 567.771768 308.162101 
L 567.409129 306.799007 
L 567.036789 305.43853 
L 566.654766 304.080741 
L 566.263081 302.725708 
L 565.861752 301.373499 
L 565.450801 300.024184 
L 565.030248 298.67783 
L 564.600115 297.334506 
L 564.160423 295.994281 
L 563.711196 294.657222 
L 563.252454 293.323397 
L 562.784222 291.992874 
L 562.306524 290.66572 
" clip-path="url(#p0371874e74)" style="fill: none; stroke: #bebebe; stroke-width: 0.8; stroke-linecap: square"/>
   </g>
   <g id="line2d_20">
    <path d="M 613.847386 358.385708 
L 613.841357 356.693109 
L 613.82327 355.000596 
L 613.793127 353.308255 
L 613.750929 351.616172 
L 613.696679 349.924432 
L 613.630378 348.233121 
L 613.55203 346.542326 
L 613.46164 344.852131 
L 613.359211 343.162624 
L 613.244749 341.473889 
L 613.11826 339.786012 
L 612.979751 338.099079 
L 612.829227 336.413176 
L 612.666698 334.728388 
L 612.49217 333.0448 
L 612.305654 331.362499 
L 612.107158 329.681568 
L 611.896693 328.002095 
L 611.674269 326.324163 
L 611.439897 324.647858 
L 611.19359 322.973266 
L 610.93536 321.30047 
L 610.665219 319.629557 
L 610.383183 317.96061 
L 610.089264 316.293715 
L 609.783478 314.628956 
L 609.465841 312.966418 
L 609.136369 311.306185 
L 608.795077 309.64834 
L 608.441985 307.992969 
L 608.077109 306.340156 
L 607.700468 304.689984 
L 607.312081 303.042536 
L 606.911968 301.397897 
L 606.500149 299.756151 
L 606.076645 298.117379 
L 605.641478 296.481666 
L 605.194669 294.849095 
L 604.736242 293.219748 
L 604.26622 291.593708 
L 603.784625 289.971057 
L 603.291484 288.351879 
L 602.786821 286.736254 
L 602.270661 285.124266 
L 601.743031 283.515996 
L 601.203957 281.911525 
L 600.653468 280.310935 
L 600.09159 278.714307 
L 599.518352 277.121722 
" clip-path="url(#p0371874e74)" style="fill: none; stroke: #bebebe; stroke-width: 0.8; stroke-linecap: square"/>
   </g>
   <g id="text_1">
    <!-- Arthritis - 376 Cases -->
    <g transform="translate(208.058322 72.592454) rotate(-300) scale(0.1 -0.1)">
     <defs>
      <path id="DejaVuSans-41" d="M 2188 4044 
L 1331 1722 
L 3047 1722 
L 2188 4044 
z
M 1831 4666 
L 2547 4666 
L 4325 0 
L 3669 0 
L 3244 1197 
L 1141 1197 
L 716 0 
L 50 0 
L 1831 4666 
z
" transform="scale(0.015625)"/>
      <path id="DejaVuSans-72" d="M 2631 2963 
Q 2534 3019 2420 3045 
Q 2306 3072 2169 3072 
Q 1681 3072 1420 2755 
Q 1159 2438 1159 1844 
L 1159 0 
L 581 0 
L 581 3500 
L 1159 3500 
L 1159 2956 
Q 1341 3275 1631 3429 
Q 1922 3584 2338 3584 
Q 2397 3584 2469 3576 
Q 2541 3569 2628 3553 
L 2631 2963 
z
" transform="scale(0.015625)"/>
      <path id="DejaVuSans-74" d="M 1172 4494 
L 1172 3500 
L 2356 3500 
L 2356 3053 
L 1172 3053 
L 1172 1153 
Q 1172 725 1289 603 
Q 1406 481 1766 481 
L 2356 481 
L 2356 0 
L 1766 0 
Q 1100 0 847 248 
Q 594 497 594 1153 
L 594 3053 
L 172 3053 
L 172 3500 
L 594 3500 
L 594 4494 
L 1172 4494 
z
" transform="scale(0.015625)"/>
      <path id="DejaVuSans-68" d="M 3513 2113 
L 3513 0 
L 2938 0 
L 2938 2094 
Q 2938 2591 2744 2837 
Q 2550 3084 2163 3084 
Q 1697 3084 1428 2787 
Q 1159 2491 1159 1978 
L 1159 0 
L 581 0 
L 581 4863 
L 1159 4863 
L 1159 2956 
Q 1366 3272 1645 3428 
Q 1925 3584 2291 3584 
Q 2894 3584 3203 3211 
Q 3513 2838 3513 2113 
z
" transform="scale(0.015625)"/>
      <path id="DejaVuSans-69" d="M 603 3500 
L 1178 3500 
L 1178 0 
L 603 0 
L 603 3500 
z
M 603 4863 
L 1178 4863 
L 1178 4134 
L 603 4134 
L 603 4863 
z
" transform="scale(0.015625)"/>
      <path id="DejaVuSans-73" d="M 2834 3397 
L 2834 2853 
Q 2591 2978 2328 3040 
Q 2066 3103 1784 3103 
Q 1356 3103 1142 2972 
Q 928 2841 928 2578 
Q 928 2378 1081 2264 
Q 1234 2150 1697 2047 
L 1894 2003 
Q 2506 1872 2764 1633 
Q 3022 1394 3022 966 
Q 3022 478 2636 193 
Q 2250 -91 1575 -91 
Q 1294 -91 989 -36 
Q 684 19 347 128 
L 347 722 
Q 666 556 975 473 
Q 1284 391 1588 391 
Q 1994 391 2212 530 
Q 2431 669 2431 922 
Q 2431 1156 2273 1281 
Q 2116 1406 1581 1522 
L 1381 1569 
Q 847 1681 609 1914 
Q 372 2147 372 2553 
Q 372 3047 722 3315 
Q 1072 3584 1716 3584 
Q 2034 3584 2315 3537 
Q 2597 3491 2834 3397 
z
" transform="scale(0.015625)"/>
      <path id="DejaVuSans-20" transform="scale(0.015625)"/>
      <path id="DejaVuSans-2d" d="M 313 2009 
L 1997 2009 
L 1997 1497 
L 313 1497 
L 313 2009 
z
" transform="scale(0.015625)"/>
      <path id="DejaVuSans-33" d="M 2597 2516 
Q 3050 2419 3304 2112 
Q 3559 1806 3559 1356 
Q 3559 666 3084 287 
Q 2609 -91 1734 -91 
Q 1441 -91 1130 -33 
Q 819 25 488 141 
L 488 750 
Q 750 597 1062 519 
Q 1375 441 1716 441 
Q 2309 441 2620 675 
Q 2931 909 2931 1356 
Q 2931 1769 2642 2001 
Q 2353 2234 1838 2234 
L 1294 2234 
L 1294 2753 
L 1863 2753 
Q 2328 2753 2575 2939 
Q 2822 3125 2822 3475 
Q 2822 3834 2567 4026 
Q 2313 4219 1838 4219 
Q 1578 4219 1281 4162 
Q 984 4106 628 3988 
L 628 4550 
Q 988 4650 1302 4700 
Q 1616 4750 1894 4750 
Q 2613 4750 3031 4423 
Q 3450 4097 3450 3541 
Q 3450 3153 3228 2886 
Q 3006 2619 2597 2516 
z
" transform="scale(0.015625)"/>
      <path id="DejaVuSans-37" d="M 525 4666 
L 3525 4666 
L 3525 4397 
L 1831 0 
L 1172 0 
L 2766 4134 
L 525 4134 
L 525 4666 
z
" transform="scale(0.015625)"/>
      <path id="DejaVuSans-36" d="M 2113 2584 
Q 1688 2584 1439 2293 
Q 1191 2003 1191 1497 
Q 1191 994 1439 701 
Q 1688 409 2113 409 
Q 2538 409 2786 701 
Q 3034 994 3034 1497 
Q 3034 2003 2786 2293 
Q 2538 2584 2113 2584 
z
M 3366 4563 
L 3366 3988 
Q 3128 4100 2886 4159 
Q 2644 4219 2406 4219 
Q 1781 4219 1451 3797 
Q 1122 3375 1075 2522 
Q 1259 2794 1537 2939 
Q 1816 3084 2150 3084 
Q 2853 3084 3261 2657 
Q 3669 2231 3669 1497 
Q 3669 778 3244 343 
Q 2819 -91 2113 -91 
Q 1303 -91 875 529 
Q 447 1150 447 2328 
Q 447 3434 972 4092 
Q 1497 4750 2381 4750 
Q 2619 4750 2861 4703 
Q 3103 4656 3366 4563 
z
" transform="scale(0.015625)"/>
      <path id="DejaVuSans-43" d="M 4122 4306 
L 4122 3641 
Q 3803 3938 3442 4084 
Q 3081 4231 2675 4231 
Q 1875 4231 1450 3742 
Q 1025 3253 1025 2328 
Q 1025 1406 1450 917 
Q 1875 428 2675 428 
Q 3081 428 3442 575 
Q 3803 722 4122 1019 
L 4122 359 
Q 3791 134 3420 21 
Q 3050 -91 2638 -91 
Q 1578 -91 968 557 
Q 359 1206 359 2328 
Q 359 3453 968 4101 
Q 1578 4750 2638 4750 
Q 3056 4750 3426 4639 
Q 3797 4528 4122 4306 
z
" transform="scale(0.015625)"/>
      <path id="DejaVuSans-61" d="M 2194 1759 
Q 1497 1759 1228 1600 
Q 959 1441 959 1056 
Q 959 750 1161 570 
Q 1363 391 1709 391 
Q 2188 391 2477 730 
Q 2766 1069 2766 1631 
L 2766 1759 
L 2194 1759 
z
M 3341 1997 
L 3341 0 
L 2766 0 
L 2766 531 
Q 2569 213 2275 61 
Q 1981 -91 1556 -91 
Q 1019 -91 701 211 
Q 384 513 384 1019 
Q 384 1609 779 1909 
Q 1175 2209 1959 2209 
L 2766 2209 
L 2766 2266 
Q 2766 2663 2505 2880 
Q 2244 3097 1772 3097 
Q 1472 3097 1187 3025 
Q 903 2953 641 2809 
L 641 3341 
Q 956 3463 1253 3523 
Q 1550 3584 1831 3584 
Q 2591 3584 2966 3190 
Q 3341 2797 3341 1997 
z
" transform="scale(0.015625)"/>
      <path id="DejaVuSans-65" d="M 3597 1894 
L 3597 1613 
L 953 1613 
Q 991 1019 1311 708 
Q 1631 397 2203 397 
Q 2534 397 2845 478 
Q 3156 559 3463 722 
L 3463 178 
Q 3153 47 2828 -22 
Q 2503 -91 2169 -91 
Q 1331 -91 842 396 
Q 353 884 353 1716 
Q 353 2575 817 3079 
Q 1281 3584 2069 3584 
Q 2775 3584 3186 3129 
Q 3597 2675 3597 1894 
z
M 3022 2063 
Q 3016 2534 2758 2815 
Q 2500 3097 2075 3097 
Q 1594 3097 1305 2825 
Q 1016 2553 972 2059 
L 3022 2063 
z
" transform="scale(0.015625)"/>
     </defs>
     <use xlink:href="#DejaVuSans-41"/>
     <use xlink:href="#DejaVuSans-72" x="68.408203"/>
     <use xlink:href="#DejaVuSans-74" x="109.521484"/>
     <use xlink:href="#DejaVuSans-68" x="148.730469"/>
     <use xlink:href="#DejaVuSans-72" x="212.109375"/>
     <use xlink:href="#DejaVuSans-69" x="253.222656"/>
     <use xlink:href="#DejaVuSans-74" x="281.005859"/>
     <use xlink:href="#DejaVuSans-69" x="320.214844"/>
     <use xlink:href="#DejaVuSans-73" x="347.998047"/>
     <use xlink:href="#DejaVuSans-20" x="400.097656"/>
     <use xlink:href="#DejaVuSans-2d" x="431.884766"/>
     <use xlink:href="#DejaVuSans-20" x="467.96875"/>
     <use xlink:href="#DejaVuSans-33" x="499.755859"/>
     <use xlink:href="#DejaVuSans-37" x="563.378906"/>
     <use xlink:href="#DejaVuSans-36" x="627.001953"/>
     <use xlink:href="#DejaVuSans-20" x="690.625"/>
     <use xlink:href="#DejaVuSans-43" x="722.412109"/>
     <use xlink:href="#DejaVuSans-61" x="792.236328"/>
     <use xlink:href="#DejaVuSans-73" x="853.515625"/>
     <use xlink:href="#DejaVuSans-65" x="905.615234"/>
     <use xlink:href="#DejaVuSans-73" x="967.138672"/>
    </g>
   </g>
   <g id="text_2">
    <!-- Asthma - 434 Cases -->
    <g transform="translate(147.398568 89.947134) rotate(-310) scale(0.1 -0.1)">
     <defs>
      <path id="DejaVuSans-6d" d="M 3328 2828 
Q 3544 3216 3844 3400 
Q 4144 3584 4550 3584 
Q 5097 3584 5394 3201 
Q 5691 2819 5691 2113 
L 5691 0 
L 5113 0 
L 5113 2094 
Q 5113 2597 4934 2840 
Q 4756 3084 4391 3084 
Q 3944 3084 3684 2787 
Q 3425 2491 3425 1978 
L 3425 0 
L 2847 0 
L 2847 2094 
Q 2847 2600 2669 2842 
Q 2491 3084 2119 3084 
Q 1678 3084 1418 2786 
Q 1159 2488 1159 1978 
L 1159 0 
L 581 0 
L 581 3500 
L 1159 3500 
L 1159 2956 
Q 1356 3278 1631 3431 
Q 1906 3584 2284 3584 
Q 2666 3584 2933 3390 
Q 3200 3197 3328 2828 
z
" transform="scale(0.015625)"/>
      <path id="DejaVuSans-34" d="M 2419 4116 
L 825 1625 
L 2419 1625 
L 2419 4116 
z
M 2253 4666 
L 3047 4666 
L 3047 1625 
L 3713 1625 
L 3713 1100 
L 3047 1100 
L 3047 0 
L 2419 0 
L 2419 1100 
L 313 1100 
L 313 1709 
L 2253 4666 
z
" transform="scale(0.015625)"/>
     </defs>
     <use xlink:href="#DejaVuSans-41"/>
     <use xlink:href="#DejaVuSans-73" x="68.408203"/>
     <use xlink:href="#DejaVuSans-74" x="120.507812"/>
     <use xlink:href="#DejaVuSans-68" x="159.716797"/>
     <use xlink:href="#DejaVuSans-6d" x="223.095703"/>
     <use xlink:href="#DejaVuSans-61" x="320.507812"/>
     <use xlink:href="#DejaVuSans-20" x="381.787109"/>
     <use xlink:href="#DejaVuSans-2d" x="413.574219"/>
     <use xlink:href="#DejaVuSans-20" x="449.658203"/>
     <use xlink:href="#DejaVuSans-34" x="481.445312"/>
     <use xlink:href="#DejaVuSans-33" x="545.068359"/>
     <use xlink:href="#DejaVuSans-34" x="608.691406"/>
     <use xlink:href="#DejaVuSans-20" x="672.314453"/>
     <use xlink:href="#DejaVuSans-43" x="704.101562"/>
     <use xlink:href="#DejaVuSans-61" x="773.925781"/>
     <use xlink:href="#DejaVuSans-73" x="835.205078"/>
     <use xlink:href="#DejaVuSans-65" x="887.304688"/>
     <use xlink:href="#DejaVuSans-73" x="948.828125"/>
    </g>
   </g>
   <g id="text_3">
    <!-- Cancer - 431 Cases -->
    <g transform="translate(107.443288 136.434398) rotate(-320) scale(0.1 -0.1)">
     <defs>
      <path id="DejaVuSans-6e" d="M 3513 2113 
L 3513 0 
L 2938 0 
L 2938 2094 
Q 2938 2591 2744 2837 
Q 2550 3084 2163 3084 
Q 1697 3084 1428 2787 
Q 1159 2491 1159 1978 
L 1159 0 
L 581 0 
L 581 3500 
L 1159 3500 
L 1159 2956 
Q 1366 3272 1645 3428 
Q 1925 3584 2291 3584 
Q 2894 3584 3203 3211 
Q 3513 2838 3513 2113 
z
" transform="scale(0.015625)"/>
      <path id="DejaVuSans-63" d="M 3122 3366 
L 3122 2828 
Q 2878 2963 2633 3030 
Q 2388 3097 2138 3097 
Q 1578 3097 1268 2742 
Q 959 2388 959 1747 
Q 959 1106 1268 751 
Q 1578 397 2138 397 
Q 2388 397 2633 464 
Q 2878 531 3122 666 
L 3122 134 
Q 2881 22 2623 -34 
Q 2366 -91 2075 -91 
Q 1284 -91 818 406 
Q 353 903 353 1747 
Q 353 2603 823 3093 
Q 1294 3584 2113 3584 
Q 2378 3584 2631 3529 
Q 2884 3475 3122 3366 
z
" transform="scale(0.015625)"/>
      <path id="DejaVuSans-31" d="M 794 531 
L 1825 531 
L 1825 4091 
L 703 3866 
L 703 4441 
L 1819 4666 
L 2450 4666 
L 2450 531 
L 3481 531 
L 3481 0 
L 794 0 
L 794 531 
z
" transform="scale(0.015625)"/>
     </defs>
     <use xlink:href="#DejaVuSans-43"/>
     <use xlink:href="#DejaVuSans-61" x="69.824219"/>
     <use xlink:href="#DejaVuSans-6e" x="131.103516"/>
     <use xlink:href="#DejaVuSans-63" x="194.482422"/>
     <use xlink:href="#DejaVuSans-65" x="249.462891"/>
     <use xlink:href="#DejaVuSans-72" x="310.986328"/>
     <use xlink:href="#DejaVuSans-20" x="352.099609"/>
     <use xlink:href="#DejaVuSans-2d" x="383.886719"/>
     <use xlink:href="#DejaVuSans-20" x="419.970703"/>
     <use xlink:href="#DejaVuSans-34" x="451.757812"/>
     <use xlink:href="#DejaVuSans-33" x="515.380859"/>
     <use xlink:href="#DejaVuSans-31" x="579.003906"/>
     <use xlink:href="#DejaVuSans-20" x="642.626953"/>
     <use xlink:href="#DejaVuSans-43" x="674.414062"/>
     <use xlink:href="#DejaVuSans-61" x="744.238281"/>
     <use xlink:href="#DejaVuSans-73" x="805.517578"/>
     <use xlink:href="#DejaVuSans-65" x="857.617188"/>
     <use xlink:href="#DejaVuSans-73" x="919.140625"/>
    </g>
   </g>
   <g id="text_4">
    <!-- Diabetes - 386 Cases -->
    <g transform="translate(80.468316 190.803835) rotate(-330) scale(0.1 -0.1)">
     <defs>
      <path id="DejaVuSans-44" d="M 1259 4147 
L 1259 519 
L 2022 519 
Q 2988 519 3436 956 
Q 3884 1394 3884 2338 
Q 3884 3275 3436 3711 
Q 2988 4147 2022 4147 
L 1259 4147 
z
M 628 4666 
L 1925 4666 
Q 3281 4666 3915 4102 
Q 4550 3538 4550 2338 
Q 4550 1131 3912 565 
Q 3275 0 1925 0 
L 628 0 
L 628 4666 
z
" transform="scale(0.015625)"/>
      <path id="DejaVuSans-62" d="M 3116 1747 
Q 3116 2381 2855 2742 
Q 2594 3103 2138 3103 
Q 1681 3103 1420 2742 
Q 1159 2381 1159 1747 
Q 1159 1113 1420 752 
Q 1681 391 2138 391 
Q 2594 391 2855 752 
Q 3116 1113 3116 1747 
z
M 1159 2969 
Q 1341 3281 1617 3432 
Q 1894 3584 2278 3584 
Q 2916 3584 3314 3078 
Q 3713 2572 3713 1747 
Q 3713 922 3314 415 
Q 2916 -91 2278 -91 
Q 1894 -91 1617 61 
Q 1341 213 1159 525 
L 1159 0 
L 581 0 
L 581 4863 
L 1159 4863 
L 1159 2969 
z
" transform="scale(0.015625)"/>
      <path id="DejaVuSans-38" d="M 2034 2216 
Q 1584 2216 1326 1975 
Q 1069 1734 1069 1313 
Q 1069 891 1326 650 
Q 1584 409 2034 409 
Q 2484 409 2743 651 
Q 3003 894 3003 1313 
Q 3003 1734 2745 1975 
Q 2488 2216 2034 2216 
z
M 1403 2484 
Q 997 2584 770 2862 
Q 544 3141 544 3541 
Q 544 4100 942 4425 
Q 1341 4750 2034 4750 
Q 2731 4750 3128 4425 
Q 3525 4100 3525 3541 
Q 3525 3141 3298 2862 
Q 3072 2584 2669 2484 
Q 3125 2378 3379 2068 
Q 3634 1759 3634 1313 
Q 3634 634 3220 271 
Q 2806 -91 2034 -91 
Q 1263 -91 848 271 
Q 434 634 434 1313 
Q 434 1759 690 2068 
Q 947 2378 1403 2484 
z
M 1172 3481 
Q 1172 3119 1398 2916 
Q 1625 2713 2034 2713 
Q 2441 2713 2670 2916 
Q 2900 3119 2900 3481 
Q 2900 3844 2670 4047 
Q 2441 4250 2034 4250 
Q 1625 4250 1398 4047 
Q 1172 3844 1172 3481 
z
" transform="scale(0.015625)"/>
     </defs>
     <use xlink:href="#DejaVuSans-44"/>
     <use xlink:href="#DejaVuSans-69" x="77.001953"/>
     <use xlink:href="#DejaVuSans-61" x="104.785156"/>
     <use xlink:href="#DejaVuSans-62" x="166.064453"/>
     <use xlink:href="#DejaVuSans-65" x="229.541016"/>
     <use xlink:href="#DejaVuSans-74" x="291.064453"/>
     <use xlink:href="#DejaVuSans-65" x="330.273438"/>
     <use xlink:href="#DejaVuSans-73" x="391.796875"/>
     <use xlink:href="#DejaVuSans-20" x="443.896484"/>
     <use xlink:href="#DejaVuSans-2d" x="475.683594"/>
     <use xlink:href="#DejaVuSans-20" x="511.767578"/>
     <use xlink:href="#DejaVuSans-33" x="543.554688"/>
     <use xlink:href="#DejaVuSans-38" x="607.177734"/>
     <use xlink:href="#DejaVuSans-36" x="670.800781"/>
     <use xlink:href="#DejaVuSans-20" x="734.423828"/>
     <use xlink:href="#DejaVuSans-43" x="766.210938"/>
     <use xlink:href="#DejaVuSans-61" x="836.035156"/>
     <use xlink:href="#DejaVuSans-73" x="897.314453"/>
     <use xlink:href="#DejaVuSans-65" x="949.414062"/>
     <use xlink:href="#DejaVuSans-73" x="1010.9375"/>
    </g>
   </g>
   <g id="text_5">
    <!-- Hypertension - 458 Cases -->
    <g transform="translate(7.911295 227.258801) rotate(-340) scale(0.1 -0.1)">
     <defs>
      <path id="DejaVuSans-48" d="M 628 4666 
L 1259 4666 
L 1259 2753 
L 3553 2753 
L 3553 4666 
L 4184 4666 
L 4184 0 
L 3553 0 
L 3553 2222 
L 1259 2222 
L 1259 0 
L 628 0 
L 628 4666 
z
" transform="scale(0.015625)"/>
      <path id="DejaVuSans-79" d="M 2059 -325 
Q 1816 -950 1584 -1140 
Q 1353 -1331 966 -1331 
L 506 -1331 
L 506 -850 
L 844 -850 
Q 1081 -850 1212 -737 
Q 1344 -625 1503 -206 
L 1606 56 
L 191 3500 
L 800 3500 
L 1894 763 
L 2988 3500 
L 3597 3500 
L 2059 -325 
z
" transform="scale(0.015625)"/>
      <path id="DejaVuSans-70" d="M 1159 525 
L 1159 -1331 
L 581 -1331 
L 581 3500 
L 1159 3500 
L 1159 2969 
Q 1341 3281 1617 3432 
Q 1894 3584 2278 3584 
Q 2916 3584 3314 3078 
Q 3713 2572 3713 1747 
Q 3713 922 3314 415 
Q 2916 -91 2278 -91 
Q 1894 -91 1617 61 
Q 1341 213 1159 525 
z
M 3116 1747 
Q 3116 2381 2855 2742 
Q 2594 3103 2138 3103 
Q 1681 3103 1420 2742 
Q 1159 2381 1159 1747 
Q 1159 1113 1420 752 
Q 1681 391 2138 391 
Q 2594 391 2855 752 
Q 3116 1113 3116 1747 
z
" transform="scale(0.015625)"/>
      <path id="DejaVuSans-6f" d="M 1959 3097 
Q 1497 3097 1228 2736 
Q 959 2375 959 1747 
Q 959 1119 1226 758 
Q 1494 397 1959 397 
Q 2419 397 2687 759 
Q 2956 1122 2956 1747 
Q 2956 2369 2687 2733 
Q 2419 3097 1959 3097 
z
M 1959 3584 
Q 2709 3584 3137 3096 
Q 3566 2609 3566 1747 
Q 3566 888 3137 398 
Q 2709 -91 1959 -91 
Q 1206 -91 779 398 
Q 353 888 353 1747 
Q 353 2609 779 3096 
Q 1206 3584 1959 3584 
z
" transform="scale(0.015625)"/>
      <path id="DejaVuSans-35" d="M 691 4666 
L 3169 4666 
L 3169 4134 
L 1269 4134 
L 1269 2991 
Q 1406 3038 1543 3061 
Q 1681 3084 1819 3084 
Q 2600 3084 3056 2656 
Q 3513 2228 3513 1497 
Q 3513 744 3044 326 
Q 2575 -91 1722 -91 
Q 1428 -91 1123 -41 
Q 819 9 494 109 
L 494 744 
Q 775 591 1075 516 
Q 1375 441 1709 441 
Q 2250 441 2565 725 
Q 2881 1009 2881 1497 
Q 2881 1984 2565 2268 
Q 2250 2553 1709 2553 
Q 1456 2553 1204 2497 
Q 953 2441 691 2322 
L 691 4666 
z
" transform="scale(0.015625)"/>
     </defs>
     <use xlink:href="#DejaVuSans-48"/>
     <use xlink:href="#DejaVuSans-79" x="75.195312"/>
     <use xlink:href="#DejaVuSans-70" x="134.375"/>
     <use xlink:href="#DejaVuSans-65" x="197.851562"/>
     <use xlink:href="#DejaVuSans-72" x="259.375"/>
     <use xlink:href="#DejaVuSans-74" x="300.488281"/>
     <use xlink:href="#DejaVuSans-65" x="339.697266"/>
     <use xlink:href="#DejaVuSans-6e" x="401.220703"/>
     <use xlink:href="#DejaVuSans-73" x="464.599609"/>
     <use xlink:href="#DejaVuSans-69" x="516.699219"/>
     <use xlink:href="#DejaVuSans-6f" x="544.482422"/>
     <use xlink:href="#DejaVuSans-6e" x="605.664062"/>
     <use xlink:href="#DejaVuSans-20" x="669.042969"/>
     <use xlink:href="#DejaVuSans-2d" x="700.830078"/>
     <use xlink:href="#DejaVuSans-20" x="736.914062"/>
     <use xlink:href="#DejaVuSans-34" x="768.701172"/>
     <use xlink:href="#DejaVuSans-35" x="832.324219"/>
     <use xlink:href="#DejaVuSans-38" x="895.947266"/>
     <use xlink:href="#DejaVuSans-20" x="959.570312"/>
     <use xlink:href="#DejaVuSans-43" x="991.357422"/>
     <use xlink:href="#DejaVuSans-61" x="1061.181641"/>
     <use xlink:href="#DejaVuSans-73" x="1122.460938"/>
     <use xlink:href="#DejaVuSans-65" x="1174.560547"/>
     <use xlink:href="#DejaVuSans-73" x="1236.083984"/>
    </g>
   </g>
   <g id="text_6">
    <!-- Obesity - 419 Cases -->
    <g transform="translate(34.216708 300.878414) rotate(-350) scale(0.1 -0.1)">
     <defs>
      <path id="DejaVuSans-4f" d="M 2522 4238 
Q 1834 4238 1429 3725 
Q 1025 3213 1025 2328 
Q 1025 1447 1429 934 
Q 1834 422 2522 422 
Q 3209 422 3611 934 
Q 4013 1447 4013 2328 
Q 4013 3213 3611 3725 
Q 3209 4238 2522 4238 
z
M 2522 4750 
Q 3503 4750 4090 4092 
Q 4678 3434 4678 2328 
Q 4678 1225 4090 567 
Q 3503 -91 2522 -91 
Q 1538 -91 948 565 
Q 359 1222 359 2328 
Q 359 3434 948 4092 
Q 1538 4750 2522 4750 
z
" transform="scale(0.015625)"/>
      <path id="DejaVuSans-39" d="M 703 97 
L 703 672 
Q 941 559 1184 500 
Q 1428 441 1663 441 
Q 2288 441 2617 861 
Q 2947 1281 2994 2138 
Q 2813 1869 2534 1725 
Q 2256 1581 1919 1581 
Q 1219 1581 811 2004 
Q 403 2428 403 3163 
Q 403 3881 828 4315 
Q 1253 4750 1959 4750 
Q 2769 4750 3195 4129 
Q 3622 3509 3622 2328 
Q 3622 1225 3098 567 
Q 2575 -91 1691 -91 
Q 1453 -91 1209 -44 
Q 966 3 703 97 
z
M 1959 2075 
Q 2384 2075 2632 2365 
Q 2881 2656 2881 3163 
Q 2881 3666 2632 3958 
Q 2384 4250 1959 4250 
Q 1534 4250 1286 3958 
Q 1038 3666 1038 3163 
Q 1038 2656 1286 2365 
Q 1534 2075 1959 2075 
z
" transform="scale(0.015625)"/>
     </defs>
     <use xlink:href="#DejaVuSans-4f"/>
     <use xlink:href="#DejaVuSans-62" x="78.710938"/>
     <use xlink:href="#DejaVuSans-65" x="142.1875"/>
     <use xlink:href="#DejaVuSans-73" x="203.710938"/>
     <use xlink:href="#DejaVuSans-69" x="255.810547"/>
     <use xlink:href="#DejaVuSans-74" x="283.59375"/>
     <use xlink:href="#DejaVuSans-79" x="322.802734"/>
     <use xlink:href="#DejaVuSans-20" x="381.982422"/>
     <use xlink:href="#DejaVuSans-2d" x="413.769531"/>
     <use xlink:href="#DejaVuSans-20" x="449.853516"/>
     <use xlink:href="#DejaVuSans-34" x="481.640625"/>
     <use xlink:href="#DejaVuSans-31" x="545.263672"/>
     <use xlink:href="#DejaVuSans-39" x="608.886719"/>
     <use xlink:href="#DejaVuSans-20" x="672.509766"/>
     <use xlink:href="#DejaVuSans-43" x="704.296875"/>
     <use xlink:href="#DejaVuSans-61" x="774.121094"/>
     <use xlink:href="#DejaVuSans-73" x="835.400391"/>
     <use xlink:href="#DejaVuSans-65" x="887.5"/>
     <use xlink:href="#DejaVuSans-73" x="949.023438"/>
    </g>
   </g>
   <g id="text_7">
    <!-- Arthritis - 411 Cases -->
    <g transform="translate(78.45102 533.504772) rotate(-30) scale(0.1 -0.1)">
     <use xlink:href="#DejaVuSans-41"/>
     <use xlink:href="#DejaVuSans-72" x="68.408203"/>
     <use xlink:href="#DejaVuSans-74" x="109.521484"/>
     <use xlink:href="#DejaVuSans-68" x="148.730469"/>
     <use xlink:href="#DejaVuSans-72" x="212.109375"/>
     <use xlink:href="#DejaVuSans-69" x="253.222656"/>
     <use xlink:href="#DejaVuSans-74" x="281.005859"/>
     <use xlink:href="#DejaVuSans-69" x="320.214844"/>
     <use xlink:href="#DejaVuSans-73" x="347.998047"/>
     <use xlink:href="#DejaVuSans-20" x="400.097656"/>
     <use xlink:href="#DejaVuSans-2d" x="431.884766"/>
     <use xlink:href="#DejaVuSans-20" x="467.96875"/>
     <use xlink:href="#DejaVuSans-34" x="499.755859"/>
     <use xlink:href="#DejaVuSans-31" x="563.378906"/>
     <use xlink:href="#DejaVuSans-31" x="627.001953"/>
     <use xlink:href="#DejaVuSans-20" x="690.625"/>
     <use xlink:href="#DejaVuSans-43" x="722.412109"/>
     <use xlink:href="#DejaVuSans-61" x="792.236328"/>
     <use xlink:href="#DejaVuSans-73" x="853.515625"/>
     <use xlink:href="#DejaVuSans-65" x="905.615234"/>
     <use xlink:href="#DejaVuSans-73" x="967.138672"/>
    </g>
   </g>
   <g id="text_8">
    <!-- Asthma - 461 Cases -->
    <g transform="translate(99.618264 594.10721) rotate(-40) scale(0.1 -0.1)">
     <use xlink:href="#DejaVuSans-41"/>
     <use xlink:href="#DejaVuSans-73" x="68.408203"/>
     <use xlink:href="#DejaVuSans-74" x="120.507812"/>
     <use xlink:href="#DejaVuSans-68" x="159.716797"/>
     <use xlink:href="#DejaVuSans-6d" x="223.095703"/>
     <use xlink:href="#DejaVuSans-61" x="320.507812"/>
     <use xlink:href="#DejaVuSans-20" x="381.787109"/>
     <use xlink:href="#DejaVuSans-2d" x="413.574219"/>
     <use xlink:href="#DejaVuSans-20" x="449.658203"/>
     <use xlink:href="#DejaVuSans-34" x="481.445312"/>
     <use xlink:href="#DejaVuSans-36" x="545.068359"/>
     <use xlink:href="#DejaVuSans-31" x="608.691406"/>
     <use xlink:href="#DejaVuSans-20" x="672.314453"/>
     <use xlink:href="#DejaVuSans-43" x="704.101562"/>
     <use xlink:href="#DejaVuSans-61" x="773.925781"/>
     <use xlink:href="#DejaVuSans-73" x="835.205078"/>
     <use xlink:href="#DejaVuSans-65" x="887.304688"/>
     <use xlink:href="#DejaVuSans-73" x="948.828125"/>
    </g>
   </g>
   <g id="text_9">
    <!-- Cancer - 420 Cases -->
    <g transform="translate(157.096058 623.852916) rotate(-50) scale(0.1 -0.1)">
     <defs>
      <path id="DejaVuSans-32" d="M 1228 531 
L 3431 531 
L 3431 0 
L 469 0 
L 469 531 
Q 828 903 1448 1529 
Q 2069 2156 2228 2338 
Q 2531 2678 2651 2914 
Q 2772 3150 2772 3378 
Q 2772 3750 2511 3984 
Q 2250 4219 1831 4219 
Q 1534 4219 1204 4116 
Q 875 4013 500 3803 
L 500 4441 
Q 881 4594 1212 4672 
Q 1544 4750 1819 4750 
Q 2544 4750 2975 4387 
Q 3406 4025 3406 3419 
Q 3406 3131 3298 2873 
Q 3191 2616 2906 2266 
Q 2828 2175 2409 1742 
Q 1991 1309 1228 531 
z
" transform="scale(0.015625)"/>
      <path id="DejaVuSans-30" d="M 2034 4250 
Q 1547 4250 1301 3770 
Q 1056 3291 1056 2328 
Q 1056 1369 1301 889 
Q 1547 409 2034 409 
Q 2525 409 2770 889 
Q 3016 1369 3016 2328 
Q 3016 3291 2770 3770 
Q 2525 4250 2034 4250 
z
M 2034 4750 
Q 2819 4750 3233 4129 
Q 3647 3509 3647 2328 
Q 3647 1150 3233 529 
Q 2819 -91 2034 -91 
Q 1250 -91 836 529 
Q 422 1150 422 2328 
Q 422 3509 836 4129 
Q 1250 4750 2034 4750 
z
" transform="scale(0.015625)"/>
     </defs>
     <use xlink:href="#DejaVuSans-43"/>
     <use xlink:href="#DejaVuSans-61" x="69.824219"/>
     <use xlink:href="#DejaVuSans-6e" x="131.103516"/>
     <use xlink:href="#DejaVuSans-63" x="194.482422"/>
     <use xlink:href="#DejaVuSans-65" x="249.462891"/>
     <use xlink:href="#DejaVuSans-72" x="310.986328"/>
     <use xlink:href="#DejaVuSans-20" x="352.099609"/>
     <use xlink:href="#DejaVuSans-2d" x="383.886719"/>
     <use xlink:href="#DejaVuSans-20" x="419.970703"/>
     <use xlink:href="#DejaVuSans-34" x="451.757812"/>
     <use xlink:href="#DejaVuSans-32" x="515.380859"/>
     <use xlink:href="#DejaVuSans-30" x="579.003906"/>
     <use xlink:href="#DejaVuSans-20" x="642.626953"/>
     <use xlink:href="#DejaVuSans-43" x="674.414062"/>
     <use xlink:href="#DejaVuSans-61" x="744.238281"/>
     <use xlink:href="#DejaVuSans-73" x="805.517578"/>
     <use xlink:href="#DejaVuSans-65" x="857.617188"/>
     <use xlink:href="#DejaVuSans-73" x="919.140625"/>
    </g>
   </g>
   <g id="text_10">
    <!-- Diabetes - 404 Cases -->
    <g transform="translate(205.101512 660.337807) rotate(-60) scale(0.1 -0.1)">
     <use xlink:href="#DejaVuSans-44"/>
     <use xlink:href="#DejaVuSans-69" x="77.001953"/>
     <use xlink:href="#DejaVuSans-61" x="104.785156"/>
     <use xlink:href="#DejaVuSans-62" x="166.064453"/>
     <use xlink:href="#DejaVuSans-65" x="229.541016"/>
     <use xlink:href="#DejaVuSans-74" x="291.064453"/>
     <use xlink:href="#DejaVuSans-65" x="330.273438"/>
     <use xlink:href="#DejaVuSans-73" x="391.796875"/>
     <use xlink:href="#DejaVuSans-20" x="443.896484"/>
     <use xlink:href="#DejaVuSans-2d" x="475.683594"/>
     <use xlink:href="#DejaVuSans-20" x="511.767578"/>
     <use xlink:href="#DejaVuSans-34" x="543.554688"/>
     <use xlink:href="#DejaVuSans-30" x="607.177734"/>
     <use xlink:href="#DejaVuSans-34" x="670.800781"/>
     <use xlink:href="#DejaVuSans-20" x="734.423828"/>
     <use xlink:href="#DejaVuSans-43" x="766.210938"/>
     <use xlink:href="#DejaVuSans-61" x="836.035156"/>
     <use xlink:href="#DejaVuSans-73" x="897.314453"/>
     <use xlink:href="#DejaVuSans-65" x="949.414062"/>
     <use xlink:href="#DejaVuSans-73" x="1010.9375"/>
    </g>
   </g>
   <g id="text_11">
    <!-- Hypertension - 414 Cases -->
    <g transform="translate(251.079837 710.348595) rotate(-70) scale(0.1 -0.1)">
     <use xlink:href="#DejaVuSans-48"/>
     <use xlink:href="#DejaVuSans-79" x="75.195312"/>
     <use xlink:href="#DejaVuSans-70" x="134.375"/>
     <use xlink:href="#DejaVuSans-65" x="197.851562"/>
     <use xlink:href="#DejaVuSans-72" x="259.375"/>
     <use xlink:href="#DejaVuSans-74" x="300.488281"/>
     <use xlink:href="#DejaVuSans-65" x="339.697266"/>
     <use xlink:href="#DejaVuSans-6e" x="401.220703"/>
     <use xlink:href="#DejaVuSans-73" x="464.599609"/>
     <use xlink:href="#DejaVuSans-69" x="516.699219"/>
     <use xlink:href="#DejaVuSans-6f" x="544.482422"/>
     <use xlink:href="#DejaVuSans-6e" x="605.664062"/>
     <use xlink:href="#DejaVuSans-20" x="669.042969"/>
     <use xlink:href="#DejaVuSans-2d" x="700.830078"/>
     <use xlink:href="#DejaVuSans-20" x="736.914062"/>
     <use xlink:href="#DejaVuSans-34" x="768.701172"/>
     <use xlink:href="#DejaVuSans-31" x="832.324219"/>
     <use xlink:href="#DejaVuSans-34" x="895.947266"/>
     <use xlink:href="#DejaVuSans-20" x="959.570312"/>
     <use xlink:href="#DejaVuSans-43" x="991.357422"/>
     <use xlink:href="#DejaVuSans-61" x="1061.181641"/>
     <use xlink:href="#DejaVuSans-73" x="1122.460938"/>
     <use xlink:href="#DejaVuSans-65" x="1174.560547"/>
     <use xlink:href="#DejaVuSans-73" x="1236.083984"/>
    </g>
   </g>
   <g id="text_12">
    <!-- Obesity - 423 Cases -->
    <g transform="translate(318.465033 701.976321) rotate(-80) scale(0.1 -0.1)">
     <use xlink:href="#DejaVuSans-4f"/>
     <use xlink:href="#DejaVuSans-62" x="78.710938"/>
     <use xlink:href="#DejaVuSans-65" x="142.1875"/>
     <use xlink:href="#DejaVuSans-73" x="203.710938"/>
     <use xlink:href="#DejaVuSans-69" x="255.810547"/>
     <use xlink:href="#DejaVuSans-74" x="283.59375"/>
     <use xlink:href="#DejaVuSans-79" x="322.802734"/>
     <use xlink:href="#DejaVuSans-20" x="381.982422"/>
     <use xlink:href="#DejaVuSans-2d" x="413.769531"/>
     <use xlink:href="#DejaVuSans-20" x="449.853516"/>
     <use xlink:href="#DejaVuSans-34" x="481.640625"/>
     <use xlink:href="#DejaVuSans-32" x="545.263672"/>
     <use xlink:href="#DejaVuSans-33" x="608.886719"/>
     <use xlink:href="#DejaVuSans-20" x="672.509766"/>
     <use xlink:href="#DejaVuSans-43" x="704.296875"/>
     <use xlink:href="#DejaVuSans-61" x="774.121094"/>
     <use xlink:href="#DejaVuSans-73" x="835.400391"/>
     <use xlink:href="#DejaVuSans-65" x="887.5"/>
     <use xlink:href="#DejaVuSans-73" x="949.023438"/>
    </g>
   </g>
   <g id="text_13">
    <!-- Arthritis - 453 Cases -->
    <g transform="translate(503.943697 585.080957) rotate(-300) scale(0.1 -0.1)">
     <use xlink:href="#DejaVuSans-41"/>
     <use xlink:href="#DejaVuSans-72" x="68.408203"/>
     <use xlink:href="#DejaVuSans-74" x="109.521484"/>
     <use xlink:href="#DejaVuSans-68" x="148.730469"/>
     <use xlink:href="#DejaVuSans-72" x="212.109375"/>
     <use xlink:href="#DejaVuSans-69" x="253.222656"/>
     <use xlink:href="#DejaVuSans-74" x="281.005859"/>
     <use xlink:href="#DejaVuSans-69" x="320.214844"/>
     <use xlink:href="#DejaVuSans-73" x="347.998047"/>
     <use xlink:href="#DejaVuSans-20" x="400.097656"/>
     <use xlink:href="#DejaVuSans-2d" x="431.884766"/>
     <use xlink:href="#DejaVuSans-20" x="467.96875"/>
     <use xlink:href="#DejaVuSans-34" x="499.755859"/>
     <use xlink:href="#DejaVuSans-35" x="563.378906"/>
     <use xlink:href="#DejaVuSans-33" x="627.001953"/>
     <use xlink:href="#DejaVuSans-20" x="690.625"/>
     <use xlink:href="#DejaVuSans-43" x="722.412109"/>
     <use xlink:href="#DejaVuSans-61" x="792.236328"/>
     <use xlink:href="#DejaVuSans-73" x="853.515625"/>
     <use xlink:href="#DejaVuSans-65" x="905.615234"/>
     <use xlink:href="#DejaVuSans-73" x="967.138672"/>
    </g>
   </g>
   <g id="text_14">
    <!-- Asthma - 422 Cases -->
    <g transform="translate(533.478059 550.058754) rotate(-310) scale(0.1 -0.1)">
     <use xlink:href="#DejaVuSans-41"/>
     <use xlink:href="#DejaVuSans-73" x="68.408203"/>
     <use xlink:href="#DejaVuSans-74" x="120.507812"/>
     <use xlink:href="#DejaVuSans-68" x="159.716797"/>
     <use xlink:href="#DejaVuSans-6d" x="223.095703"/>
     <use xlink:href="#DejaVuSans-61" x="320.507812"/>
     <use xlink:href="#DejaVuSans-20" x="381.787109"/>
     <use xlink:href="#DejaVuSans-2d" x="413.574219"/>
     <use xlink:href="#DejaVuSans-20" x="449.658203"/>
     <use xlink:href="#DejaVuSans-34" x="481.445312"/>
     <use xlink:href="#DejaVuSans-32" x="545.068359"/>
     <use xlink:href="#DejaVuSans-32" x="608.691406"/>
     <use xlink:href="#DejaVuSans-20" x="672.314453"/>
     <use xlink:href="#DejaVuSans-43" x="704.101562"/>
     <use xlink:href="#DejaVuSans-61" x="773.925781"/>
     <use xlink:href="#DejaVuSans-73" x="835.205078"/>
     <use xlink:href="#DejaVuSans-65" x="887.304688"/>
     <use xlink:href="#DejaVuSans-73" x="948.828125"/>
    </g>
   </g>
   <g id="text_15">
    <!-- Cancer - 406 Cases -->
    <g transform="translate(559.519389 515.771287) rotate(-320) scale(0.1 -0.1)">
     <use xlink:href="#DejaVuSans-43"/>
     <use xlink:href="#DejaVuSans-61" x="69.824219"/>
     <use xlink:href="#DejaVuSans-6e" x="131.103516"/>
     <use xlink:href="#DejaVuSans-63" x="194.482422"/>
     <use xlink:href="#DejaVuSans-65" x="249.462891"/>
     <use xlink:href="#DejaVuSans-72" x="310.986328"/>
     <use xlink:href="#DejaVuSans-20" x="352.099609"/>
     <use xlink:href="#DejaVuSans-2d" x="383.886719"/>
     <use xlink:href="#DejaVuSans-20" x="419.970703"/>
     <use xlink:href="#DejaVuSans-34" x="451.757812"/>
     <use xlink:href="#DejaVuSans-30" x="515.380859"/>
     <use xlink:href="#DejaVuSans-36" x="579.003906"/>
     <use xlink:href="#DejaVuSans-20" x="642.626953"/>
     <use xlink:href="#DejaVuSans-43" x="674.414062"/>
     <use xlink:href="#DejaVuSans-61" x="744.238281"/>
     <use xlink:href="#DejaVuSans-73" x="805.517578"/>
     <use xlink:href="#DejaVuSans-65" x="857.617188"/>
     <use xlink:href="#DejaVuSans-73" x="919.140625"/>
    </g>
   </g>
   <g id="text_16">
    <!-- Diabetes - 421 Cases -->
    <g transform="translate(589.208986 484.525397) rotate(-330) scale(0.1 -0.1)">
     <use xlink:href="#DejaVuSans-44"/>
     <use xlink:href="#DejaVuSans-69" x="77.001953"/>
     <use xlink:href="#DejaVuSans-61" x="104.785156"/>
     <use xlink:href="#DejaVuSans-62" x="166.064453"/>
     <use xlink:href="#DejaVuSans-65" x="229.541016"/>
     <use xlink:href="#DejaVuSans-74" x="291.064453"/>
     <use xlink:href="#DejaVuSans-65" x="330.273438"/>
     <use xlink:href="#DejaVuSans-73" x="391.796875"/>
     <use xlink:href="#DejaVuSans-20" x="443.896484"/>
     <use xlink:href="#DejaVuSans-2d" x="475.683594"/>
     <use xlink:href="#DejaVuSans-20" x="511.767578"/>
     <use xlink:href="#DejaVuSans-34" x="543.554688"/>
     <use xlink:href="#DejaVuSans-32" x="607.177734"/>
     <use xlink:href="#DejaVuSans-31" x="670.800781"/>
     <use xlink:href="#DejaVuSans-20" x="734.423828"/>
     <use xlink:href="#DejaVuSans-43" x="766.210938"/>
     <use xlink:href="#DejaVuSans-61" x="836.035156"/>
     <use xlink:href="#DejaVuSans-73" x="897.314453"/>
     <use xlink:href="#DejaVuSans-65" x="949.414062"/>
     <use xlink:href="#DejaVuSans-73" x="1010.9375"/>
    </g>
   </g>
   <g id="text_17">
    <!-- Hypertension - 406 Cases -->
    <g transform="translate(602.295773 443.597058) rotate(-340) scale(0.1 -0.1)">
     <use xlink:href="#DejaVuSans-48"/>
     <use xlink:href="#DejaVuSans-79" x="75.195312"/>
     <use xlink:href="#DejaVuSans-70" x="134.375"/>
     <use xlink:href="#DejaVuSans-65" x="197.851562"/>
     <use xlink:href="#DejaVuSans-72" x="259.375"/>
     <use xlink:href="#DejaVuSans-74" x="300.488281"/>
     <use xlink:href="#DejaVuSans-65" x="339.697266"/>
     <use xlink:href="#DejaVuSans-6e" x="401.220703"/>
     <use xlink:href="#DejaVuSans-73" x="464.599609"/>
     <use xlink:href="#DejaVuSans-69" x="516.699219"/>
     <use xlink:href="#DejaVuSans-6f" x="544.482422"/>
     <use xlink:href="#DejaVuSans-6e" x="605.664062"/>
     <use xlink:href="#DejaVuSans-20" x="669.042969"/>
     <use xlink:href="#DejaVuSans-2d" x="700.830078"/>
     <use xlink:href="#DejaVuSans-20" x="736.914062"/>
     <use xlink:href="#DejaVuSans-34" x="768.701172"/>
     <use xlink:href="#DejaVuSans-30" x="832.324219"/>
     <use xlink:href="#DejaVuSans-36" x="895.947266"/>
     <use xlink:href="#DejaVuSans-20" x="959.570312"/>
     <use xlink:href="#DejaVuSans-43" x="991.357422"/>
     <use xlink:href="#DejaVuSans-61" x="1061.181641"/>
     <use xlink:href="#DejaVuSans-73" x="1122.460938"/>
     <use xlink:href="#DejaVuSans-65" x="1174.560547"/>
     <use xlink:href="#DejaVuSans-73" x="1236.083984"/>
    </g>
   </g>
   <g id="text_18">
    <!-- Obesity - 397 Cases -->
    <g transform="translate(610.148531 402.430734) rotate(-350) scale(0.1 -0.1)">
     <use xlink:href="#DejaVuSans-4f"/>
     <use xlink:href="#DejaVuSans-62" x="78.710938"/>
     <use xlink:href="#DejaVuSans-65" x="142.1875"/>
     <use xlink:href="#DejaVuSans-73" x="203.710938"/>
     <use xlink:href="#DejaVuSans-69" x="255.810547"/>
     <use xlink:href="#DejaVuSans-74" x="283.59375"/>
     <use xlink:href="#DejaVuSans-79" x="322.802734"/>
     <use xlink:href="#DejaVuSans-20" x="381.982422"/>
     <use xlink:href="#DejaVuSans-2d" x="413.769531"/>
     <use xlink:href="#DejaVuSans-20" x="449.853516"/>
     <use xlink:href="#DejaVuSans-33" x="481.640625"/>
     <use xlink:href="#DejaVuSans-39" x="545.263672"/>
     <use xlink:href="#DejaVuSans-37" x="608.886719"/>
     <use xlink:href="#DejaVuSans-20" x="672.509766"/>
     <use xlink:href="#DejaVuSans-43" x="704.296875"/>
     <use xlink:href="#DejaVuSans-61" x="774.121094"/>
     <use xlink:href="#DejaVuSans-73" x="835.400391"/>
     <use xlink:href="#DejaVuSans-65" x="887.5"/>
     <use xlink:href="#DejaVuSans-73" x="949.023438"/>
    </g>
   </g>
   <g id="text_19">
    <!-- Arthritis - 410 Cases -->
    <g transform="translate(588.195954 239.203397) rotate(-30) scale(0.1 -0.1)">
     <use xlink:href="#DejaVuSans-41"/>
     <use xlink:href="#DejaVuSans-72" x="68.408203"/>
     <use xlink:href="#DejaVuSans-74" x="109.521484"/>
     <use xlink:href="#DejaVuSans-68" x="148.730469"/>
     <use xlink:href="#DejaVuSans-72" x="212.109375"/>
     <use xlink:href="#DejaVuSans-69" x="253.222656"/>
     <use xlink:href="#DejaVuSans-74" x="281.005859"/>
     <use xlink:href="#DejaVuSans-69" x="320.214844"/>
     <use xlink:href="#DejaVuSans-73" x="347.998047"/>
     <use xlink:href="#DejaVuSans-20" x="400.097656"/>
     <use xlink:href="#DejaVuSans-2d" x="431.884766"/>
     <use xlink:href="#DejaVuSans-20" x="467.96875"/>
     <use xlink:href="#DejaVuSans-34" x="499.755859"/>
     <use xlink:href="#DejaVuSans-31" x="563.378906"/>
     <use xlink:href="#DejaVuSans-30" x="627.001953"/>
     <use xlink:href="#DejaVuSans-20" x="690.625"/>
     <use xlink:href="#DejaVuSans-43" x="722.412109"/>
     <use xlink:href="#DejaVuSans-61" x="792.236328"/>
     <use xlink:href="#DejaVuSans-73" x="853.515625"/>
     <use xlink:href="#DejaVuSans-65" x="905.615234"/>
     <use xlink:href="#DejaVuSans-73" x="967.138672"/>
    </g>
   </g>
   <g id="text_20">
    <!-- Asthma - 391 Cases -->
    <g transform="translate(558.516469 209.045896) rotate(-40) scale(0.1 -0.1)">
     <use xlink:href="#DejaVuSans-41"/>
     <use xlink:href="#DejaVuSans-73" x="68.408203"/>
     <use xlink:href="#DejaVuSans-74" x="120.507812"/>
     <use xlink:href="#DejaVuSans-68" x="159.716797"/>
     <use xlink:href="#DejaVuSans-6d" x="223.095703"/>
     <use xlink:href="#DejaVuSans-61" x="320.507812"/>
     <use xlink:href="#DejaVuSans-20" x="381.787109"/>
     <use xlink:href="#DejaVuSans-2d" x="413.574219"/>
     <use xlink:href="#DejaVuSans-20" x="449.658203"/>
     <use xlink:href="#DejaVuSans-33" x="481.445312"/>
     <use xlink:href="#DejaVuSans-39" x="545.068359"/>
     <use xlink:href="#DejaVuSans-31" x="608.691406"/>
     <use xlink:href="#DejaVuSans-20" x="672.314453"/>
     <use xlink:href="#DejaVuSans-43" x="704.101562"/>
     <use xlink:href="#DejaVuSans-61" x="773.925781"/>
     <use xlink:href="#DejaVuSans-73" x="835.205078"/>
     <use xlink:href="#DejaVuSans-65" x="887.304688"/>
     <use xlink:href="#DejaVuSans-73" x="948.828125"/>
    </g>
   </g>
   <g id="text_21">
    <!-- Cancer - 446 Cases -->
    <g transform="translate(543.81472 162.979561) rotate(-50) scale(0.1 -0.1)">
     <use xlink:href="#DejaVuSans-43"/>
     <use xlink:href="#DejaVuSans-61" x="69.824219"/>
     <use xlink:href="#DejaVuSans-6e" x="131.103516"/>
     <use xlink:href="#DejaVuSans-63" x="194.482422"/>
     <use xlink:href="#DejaVuSans-65" x="249.462891"/>
     <use xlink:href="#DejaVuSans-72" x="310.986328"/>
     <use xlink:href="#DejaVuSans-20" x="352.099609"/>
     <use xlink:href="#DejaVuSans-2d" x="383.886719"/>
     <use xlink:href="#DejaVuSans-20" x="419.970703"/>
     <use xlink:href="#DejaVuSans-34" x="451.757812"/>
     <use xlink:href="#DejaVuSans-34" x="515.380859"/>
     <use xlink:href="#DejaVuSans-36" x="579.003906"/>
     <use xlink:href="#DejaVuSans-20" x="642.626953"/>
     <use xlink:href="#DejaVuSans-43" x="674.414062"/>
     <use xlink:href="#DejaVuSans-61" x="744.238281"/>
     <use xlink:href="#DejaVuSans-73" x="805.517578"/>
     <use xlink:href="#DejaVuSans-65" x="857.617188"/>
     <use xlink:href="#DejaVuSans-73" x="919.140625"/>
    </g>
   </g>
   <g id="text_22">
    <!-- Diabetes - 412 Cases -->
    <g transform="translate(500.605074 148.510623) rotate(-60) scale(0.1 -0.1)">
     <use xlink:href="#DejaVuSans-44"/>
     <use xlink:href="#DejaVuSans-69" x="77.001953"/>
     <use xlink:href="#DejaVuSans-61" x="104.785156"/>
     <use xlink:href="#DejaVuSans-62" x="166.064453"/>
     <use xlink:href="#DejaVuSans-65" x="229.541016"/>
     <use xlink:href="#DejaVuSans-74" x="291.064453"/>
     <use xlink:href="#DejaVuSans-65" x="330.273438"/>
     <use xlink:href="#DejaVuSans-73" x="391.796875"/>
     <use xlink:href="#DejaVuSans-20" x="443.896484"/>
     <use xlink:href="#DejaVuSans-2d" x="475.683594"/>
     <use xlink:href="#DejaVuSans-20" x="511.767578"/>
     <use xlink:href="#DejaVuSans-34" x="543.554688"/>
     <use xlink:href="#DejaVuSans-31" x="607.177734"/>
     <use xlink:href="#DejaVuSans-32" x="670.800781"/>
     <use xlink:href="#DejaVuSans-20" x="734.423828"/>
     <use xlink:href="#DejaVuSans-43" x="766.210938"/>
     <use xlink:href="#DejaVuSans-61" x="836.035156"/>
     <use xlink:href="#DejaVuSans-73" x="897.314453"/>
     <use xlink:href="#DejaVuSans-65" x="949.414062"/>
     <use xlink:href="#DejaVuSans-73" x="1010.9375"/>
    </g>
   </g>
   <g id="text_23">
    <!-- Hypertension - 410 Cases -->
    <g transform="translate(462.000496 130.848847) rotate(-70) scale(0.1 -0.1)">
     <use xlink:href="#DejaVuSans-48"/>
     <use xlink:href="#DejaVuSans-79" x="75.195312"/>
     <use xlink:href="#DejaVuSans-70" x="134.375"/>
     <use xlink:href="#DejaVuSans-65" x="197.851562"/>
     <use xlink:href="#DejaVuSans-72" x="259.375"/>
     <use xlink:href="#DejaVuSans-74" x="300.488281"/>
     <use xlink:href="#DejaVuSans-65" x="339.697266"/>
     <use xlink:href="#DejaVuSans-6e" x="401.220703"/>
     <use xlink:href="#DejaVuSans-73" x="464.599609"/>
     <use xlink:href="#DejaVuSans-69" x="516.699219"/>
     <use xlink:href="#DejaVuSans-6f" x="544.482422"/>
     <use xlink:href="#DejaVuSans-6e" x="605.664062"/>
     <use xlink:href="#DejaVuSans-20" x="669.042969"/>
     <use xlink:href="#DejaVuSans-2d" x="700.830078"/>
     <use xlink:href="#DejaVuSans-20" x="736.914062"/>
     <use xlink:href="#DejaVuSans-34" x="768.701172"/>
     <use xlink:href="#DejaVuSans-31" x="832.324219"/>
     <use xlink:href="#DejaVuSans-30" x="895.947266"/>
     <use xlink:href="#DejaVuSans-20" x="959.570312"/>
     <use xlink:href="#DejaVuSans-43" x="991.357422"/>
     <use xlink:href="#DejaVuSans-61" x="1061.181641"/>
     <use xlink:href="#DejaVuSans-73" x="1122.460938"/>
     <use xlink:href="#DejaVuSans-65" x="1174.560547"/>
     <use xlink:href="#DejaVuSans-73" x="1236.083984"/>
    </g>
   </g>
   <g id="text_24">
    <!-- Obesity - 389 Cases -->
    <g transform="translate(419.742294 127.604434) rotate(-80) scale(0.1 -0.1)">
     <use xlink:href="#DejaVuSans-4f"/>
     <use xlink:href="#DejaVuSans-62" x="78.710938"/>
     <use xlink:href="#DejaVuSans-65" x="142.1875"/>
     <use xlink:href="#DejaVuSans-73" x="203.710938"/>
     <use xlink:href="#DejaVuSans-69" x="255.810547"/>
     <use xlink:href="#DejaVuSans-74" x="283.59375"/>
     <use xlink:href="#DejaVuSans-79" x="322.802734"/>
     <use xlink:href="#DejaVuSans-20" x="381.982422"/>
     <use xlink:href="#DejaVuSans-2d" x="413.769531"/>
     <use xlink:href="#DejaVuSans-20" x="449.853516"/>
     <use xlink:href="#DejaVuSans-33" x="481.640625"/>
     <use xlink:href="#DejaVuSans-38" x="545.263672"/>
     <use xlink:href="#DejaVuSans-39" x="608.886719"/>
     <use xlink:href="#DejaVuSans-20" x="672.509766"/>
     <use xlink:href="#DejaVuSans-43" x="704.296875"/>
     <use xlink:href="#DejaVuSans-61" x="774.121094"/>
     <use xlink:href="#DejaVuSans-73" x="835.400391"/>
     <use xlink:href="#DejaVuSans-65" x="887.5"/>
     <use xlink:href="#DejaVuSans-73" x="949.023438"/>
    </g>
   </g>
   <g id="text_25">
    <!--      Summer -->
    <g style="fill: #333333" transform="translate(295.449129 327.074643) scale(0.1 -0.1)">
     <defs>
      <path id="DejaVuSans-Bold-20" transform="scale(0.015625)"/>
      <path id="DejaVuSans-Bold-53" d="M 3834 4519 
L 3834 3531 
Q 3450 3703 3084 3790 
Q 2719 3878 2394 3878 
Q 1963 3878 1756 3759 
Q 1550 3641 1550 3391 
Q 1550 3203 1689 3098 
Q 1828 2994 2194 2919 
L 2706 2816 
Q 3484 2659 3812 2340 
Q 4141 2022 4141 1434 
Q 4141 663 3683 286 
Q 3225 -91 2284 -91 
Q 1841 -91 1394 -6 
Q 947 78 500 244 
L 500 1259 
Q 947 1022 1364 901 
Q 1781 781 2169 781 
Q 2563 781 2772 912 
Q 2981 1044 2981 1288 
Q 2981 1506 2839 1625 
Q 2697 1744 2272 1838 
L 1806 1941 
Q 1106 2091 782 2419 
Q 459 2747 459 3303 
Q 459 4000 909 4375 
Q 1359 4750 2203 4750 
Q 2588 4750 2994 4692 
Q 3400 4634 3834 4519 
z
" transform="scale(0.015625)"/>
      <path id="DejaVuSans-Bold-75" d="M 500 1363 
L 500 3500 
L 1625 3500 
L 1625 3150 
Q 1625 2866 1622 2436 
Q 1619 2006 1619 1863 
Q 1619 1441 1641 1255 
Q 1663 1069 1716 984 
Q 1784 875 1895 815 
Q 2006 756 2150 756 
Q 2500 756 2700 1025 
Q 2900 1294 2900 1772 
L 2900 3500 
L 4019 3500 
L 4019 0 
L 2900 0 
L 2900 506 
Q 2647 200 2364 54 
Q 2081 -91 1741 -91 
Q 1134 -91 817 281 
Q 500 653 500 1363 
z
" transform="scale(0.015625)"/>
      <path id="DejaVuSans-Bold-6d" d="M 3781 2919 
Q 3994 3244 4286 3414 
Q 4578 3584 4928 3584 
Q 5531 3584 5847 3212 
Q 6163 2841 6163 2131 
L 6163 0 
L 5038 0 
L 5038 1825 
Q 5041 1866 5042 1909 
Q 5044 1953 5044 2034 
Q 5044 2406 4934 2573 
Q 4825 2741 4581 2741 
Q 4263 2741 4089 2478 
Q 3916 2216 3909 1719 
L 3909 0 
L 2784 0 
L 2784 1825 
Q 2784 2406 2684 2573 
Q 2584 2741 2328 2741 
Q 2006 2741 1831 2477 
Q 1656 2213 1656 1722 
L 1656 0 
L 531 0 
L 531 3500 
L 1656 3500 
L 1656 2988 
Q 1863 3284 2130 3434 
Q 2397 3584 2719 3584 
Q 3081 3584 3359 3409 
Q 3638 3234 3781 2919 
z
" transform="scale(0.015625)"/>
      <path id="DejaVuSans-Bold-65" d="M 4031 1759 
L 4031 1441 
L 1416 1441 
Q 1456 1047 1700 850 
Q 1944 653 2381 653 
Q 2734 653 3104 758 
Q 3475 863 3866 1075 
L 3866 213 
Q 3469 63 3072 -14 
Q 2675 -91 2278 -91 
Q 1328 -91 801 392 
Q 275 875 275 1747 
Q 275 2603 792 3093 
Q 1309 3584 2216 3584 
Q 3041 3584 3536 3087 
Q 4031 2591 4031 1759 
z
M 2881 2131 
Q 2881 2450 2695 2645 
Q 2509 2841 2209 2841 
Q 1884 2841 1681 2658 
Q 1478 2475 1428 2131 
L 2881 2131 
z
" transform="scale(0.015625)"/>
      <path id="DejaVuSans-Bold-72" d="M 3138 2547 
Q 2991 2616 2845 2648 
Q 2700 2681 2553 2681 
Q 2122 2681 1889 2404 
Q 1656 2128 1656 1613 
L 1656 0 
L 538 0 
L 538 3500 
L 1656 3500 
L 1656 2925 
Q 1872 3269 2151 3426 
Q 2431 3584 2822 3584 
Q 2878 3584 2943 3579 
Q 3009 3575 3134 3559 
L 3138 2547 
z
" transform="scale(0.015625)"/>
     </defs>
     <use xlink:href="#DejaVuSans-Bold-20"/>
     <use xlink:href="#DejaVuSans-Bold-20" x="34.814453"/>
     <use xlink:href="#DejaVuSans-Bold-20" x="69.628906"/>
     <use xlink:href="#DejaVuSans-Bold-20" x="104.443359"/>
     <use xlink:href="#DejaVuSans-Bold-20" x="139.257812"/>
     <use xlink:href="#DejaVuSans-Bold-53" x="174.072266"/>
     <use xlink:href="#DejaVuSans-Bold-75" x="246.09375"/>
     <use xlink:href="#DejaVuSans-Bold-6d" x="317.285156"/>
     <use xlink:href="#DejaVuSans-Bold-6d" x="421.484375"/>
     <use xlink:href="#DejaVuSans-Bold-65" x="525.683594"/>
     <use xlink:href="#DejaVuSans-Bold-72" x="593.505859"/>
    </g>
   </g>
   <g id="text_26">
    <!--        Monsoon -->
    <g style="fill: #333333" transform="translate(304.616789 409.802715) scale(0.1 -0.1)">
     <defs>
      <path id="DejaVuSans-Bold-4d" d="M 588 4666 
L 2119 4666 
L 3181 2169 
L 4250 4666 
L 5778 4666 
L 5778 0 
L 4641 0 
L 4641 3413 
L 3566 897 
L 2803 897 
L 1728 3413 
L 1728 0 
L 588 0 
L 588 4666 
z
" transform="scale(0.015625)"/>
      <path id="DejaVuSans-Bold-6f" d="M 2203 2784 
Q 1831 2784 1636 2517 
Q 1441 2250 1441 1747 
Q 1441 1244 1636 976 
Q 1831 709 2203 709 
Q 2569 709 2762 976 
Q 2956 1244 2956 1747 
Q 2956 2250 2762 2517 
Q 2569 2784 2203 2784 
z
M 2203 3584 
Q 3106 3584 3614 3096 
Q 4122 2609 4122 1747 
Q 4122 884 3614 396 
Q 3106 -91 2203 -91 
Q 1297 -91 786 396 
Q 275 884 275 1747 
Q 275 2609 786 3096 
Q 1297 3584 2203 3584 
z
" transform="scale(0.015625)"/>
      <path id="DejaVuSans-Bold-6e" d="M 4056 2131 
L 4056 0 
L 2931 0 
L 2931 347 
L 2931 1631 
Q 2931 2084 2911 2256 
Q 2891 2428 2841 2509 
Q 2775 2619 2662 2680 
Q 2550 2741 2406 2741 
Q 2056 2741 1856 2470 
Q 1656 2200 1656 1722 
L 1656 0 
L 538 0 
L 538 3500 
L 1656 3500 
L 1656 2988 
Q 1909 3294 2193 3439 
Q 2478 3584 2822 3584 
Q 3428 3584 3742 3212 
Q 4056 2841 4056 2131 
z
" transform="scale(0.015625)"/>
      <path id="DejaVuSans-Bold-73" d="M 3272 3391 
L 3272 2541 
Q 2913 2691 2578 2766 
Q 2244 2841 1947 2841 
Q 1628 2841 1473 2761 
Q 1319 2681 1319 2516 
Q 1319 2381 1436 2309 
Q 1553 2238 1856 2203 
L 2053 2175 
Q 2913 2066 3209 1816 
Q 3506 1566 3506 1031 
Q 3506 472 3093 190 
Q 2681 -91 1863 -91 
Q 1516 -91 1145 -36 
Q 775 19 384 128 
L 384 978 
Q 719 816 1070 734 
Q 1422 653 1784 653 
Q 2113 653 2278 743 
Q 2444 834 2444 1013 
Q 2444 1163 2330 1236 
Q 2216 1309 1875 1350 
L 1678 1375 
Q 931 1469 631 1722 
Q 331 1975 331 2491 
Q 331 3047 712 3315 
Q 1094 3584 1881 3584 
Q 2191 3584 2531 3537 
Q 2872 3491 3272 3391 
z
" transform="scale(0.015625)"/>
     </defs>
     <use xlink:href="#DejaVuSans-Bold-20"/>
     <use xlink:href="#DejaVuSans-Bold-20" x="34.814453"/>
     <use xlink:href="#DejaVuSans-Bold-20" x="69.628906"/>
     <use xlink:href="#DejaVuSans-Bold-20" x="104.443359"/>
     <use xlink:href="#DejaVuSans-Bold-20" x="139.257812"/>
     <use xlink:href="#DejaVuSans-Bold-20" x="174.072266"/>
     <use xlink:href="#DejaVuSans-Bold-20" x="208.886719"/>
     <use xlink:href="#DejaVuSans-Bold-4d" x="243.701172"/>
     <use xlink:href="#DejaVuSans-Bold-6f" x="343.212891"/>
     <use xlink:href="#DejaVuSans-Bold-6e" x="411.914062"/>
     <use xlink:href="#DejaVuSans-Bold-73" x="483.105469"/>
     <use xlink:href="#DejaVuSans-Bold-6f" x="542.626953"/>
     <use xlink:href="#DejaVuSans-Bold-6f" x="611.328125"/>
     <use xlink:href="#DejaVuSans-Bold-6e" x="680.029297"/>
    </g>
   </g>
   <g id="text_27">
    <!-- Winter    -->
    <g style="fill: #333333" transform="translate(400.647986 395.215524) scale(0.1 -0.1)">
     <defs>
      <path id="DejaVuSans-Bold-57" d="M 191 4666 
L 1344 4666 
L 2150 1275 
L 2950 4666 
L 4109 4666 
L 4909 1275 
L 5716 4666 
L 6859 4666 
L 5759 0 
L 4372 0 
L 3525 3547 
L 2688 0 
L 1300 0 
L 191 4666 
z
" transform="scale(0.015625)"/>
      <path id="DejaVuSans-Bold-69" d="M 538 3500 
L 1656 3500 
L 1656 0 
L 538 0 
L 538 3500 
z
M 538 4863 
L 1656 4863 
L 1656 3950 
L 538 3950 
L 538 4863 
z
" transform="scale(0.015625)"/>
      <path id="DejaVuSans-Bold-74" d="M 1759 4494 
L 1759 3500 
L 2913 3500 
L 2913 2700 
L 1759 2700 
L 1759 1216 
Q 1759 972 1856 886 
Q 1953 800 2241 800 
L 2816 800 
L 2816 0 
L 1856 0 
Q 1194 0 917 276 
Q 641 553 641 1216 
L 641 2700 
L 84 2700 
L 84 3500 
L 641 3500 
L 641 4494 
L 1759 4494 
z
" transform="scale(0.015625)"/>
     </defs>
     <use xlink:href="#DejaVuSans-Bold-57"/>
     <use xlink:href="#DejaVuSans-Bold-69" x="110.302734"/>
     <use xlink:href="#DejaVuSans-Bold-6e" x="144.580078"/>
     <use xlink:href="#DejaVuSans-Bold-74" x="215.771484"/>
     <use xlink:href="#DejaVuSans-Bold-65" x="263.574219"/>
     <use xlink:href="#DejaVuSans-Bold-72" x="331.396484"/>
     <use xlink:href="#DejaVuSans-Bold-20" x="380.712891"/>
     <use xlink:href="#DejaVuSans-Bold-20" x="415.527344"/>
     <use xlink:href="#DejaVuSans-Bold-20" x="450.341797"/>
    </g>
   </g>
   <g id="text_28">
    <!-- Fall -->
    <g style="fill: #333333" transform="translate(400.393607 312.487452) scale(0.1 -0.1)">
     <defs>
      <path id="DejaVuSans-Bold-46" d="M 588 4666 
L 3834 4666 
L 3834 3756 
L 1791 3756 
L 1791 2888 
L 3713 2888 
L 3713 1978 
L 1791 1978 
L 1791 0 
L 588 0 
L 588 4666 
z
" transform="scale(0.015625)"/>
      <path id="DejaVuSans-Bold-61" d="M 2106 1575 
Q 1756 1575 1579 1456 
Q 1403 1338 1403 1106 
Q 1403 894 1545 773 
Q 1688 653 1941 653 
Q 2256 653 2472 879 
Q 2688 1106 2688 1447 
L 2688 1575 
L 2106 1575 
z
M 3816 1997 
L 3816 0 
L 2688 0 
L 2688 519 
Q 2463 200 2181 54 
Q 1900 -91 1497 -91 
Q 953 -91 614 226 
Q 275 544 275 1050 
Q 275 1666 698 1953 
Q 1122 2241 2028 2241 
L 2688 2241 
L 2688 2328 
Q 2688 2594 2478 2717 
Q 2269 2841 1825 2841 
Q 1466 2841 1156 2769 
Q 847 2697 581 2553 
L 581 3406 
Q 941 3494 1303 3539 
Q 1666 3584 2028 3584 
Q 2975 3584 3395 3211 
Q 3816 2838 3816 1997 
z
" transform="scale(0.015625)"/>
      <path id="DejaVuSans-Bold-6c" d="M 538 4863 
L 1656 4863 
L 1656 0 
L 538 0 
L 538 4863 
z
" transform="scale(0.015625)"/>
     </defs>
     <use xlink:href="#DejaVuSans-Bold-46"/>
     <use xlink:href="#DejaVuSans-Bold-61" x="62.435547"/>
     <use xlink:href="#DejaVuSans-Bold-6c" x="129.916016"/>
     <use xlink:href="#DejaVuSans-Bold-6c" x="164.193359"/>
    </g>
   </g>
  </g>
 </g>
 <defs>
  <clipPath id="p0371874e74">
   <path d="M 653.447386 358.385708 
C 653.447386 321.984138 646.27707 285.936527 632.346792 252.305861 
C 618.416514 218.675195 597.997183 188.115506 572.257385 162.375708 
C 546.517588 136.635911 515.957899 116.21658 482.327233 102.286302 
C 448.696567 88.356024 412.648956 81.185708 376.247386 81.185708 
C 339.845815 81.185708 303.798204 88.356024 270.167538 102.286302 
C 236.536872 116.21658 205.977183 136.635911 180.237386 162.375708 
C 154.497588 188.115506 134.078257 218.675195 120.147979 252.305861 
C 106.217701 285.936527 99.047386 321.984138 99.047386 358.385708 
C 99.047386 394.787279 106.217701 430.83489 120.147979 464.465556 
C 134.078257 498.096222 154.497588 528.655911 180.237386 554.395708 
C 205.977183 580.135505 236.536872 600.554837 270.167538 614.485115 
C 303.798204 628.415393 339.845815 635.585708 376.247386 635.585708 
C 412.648956 635.585708 448.696567 628.415393 482.327233 614.485115 
C 515.957899 600.554837 546.517588 580.135505 572.257385 554.395708 
C 597.997183 528.655911 618.416514 498.096222 632.346792 464.465556 
C 646.27707 430.83489 653.447386 394.787279 653.447386 358.385708 
M 376.247386 358.385708 
C 376.247386 358.385708 376.247386 358.385708 376.247386 358.385708 
C 376.247386 358.385708 376.247386 358.385708 376.247386 358.385708 
C 376.247386 358.385708 376.247386 358.385708 376.247386 358.385708 
C 376.247386 358.385708 376.247386 358.385708 376.247386 358.385708 
C 376.247386 358.385708 376.247386 358.385708 376.247386 358.385708 
C 376.247386 358.385708 376.247386 358.385708 376.247386 358.385708 
C 376.247386 358.385708 376.247386 358.385708 376.247386 358.385708 
C 376.247386 358.385708 376.247386 358.385708 376.247386 358.385708 
C 376.247386 358.385708 376.247386 358.385708 376.247386 358.385708 
C 376.247386 358.385708 376.247386 358.385708 376.247386 358.385708 
C 376.247386 358.385708 376.247386 358.385708 376.247386 358.385708 
C 376.247386 358.385708 376.247386 358.385708 376.247386 358.385708 
C 376.247386 358.385708 376.247386 358.385708 376.247386 358.385708 
C 376.247386 358.385708 376.247386 358.385708 376.247386 358.385708 
C 376.247386 358.385708 376.247386 358.385708 376.247386 358.385708 
C 376.247386 358.385708 376.247386 358.385708 376.247386 358.385708 
z
"/>
  </clipPath>
 </defs>
</svg>
